<svg xmlns="http://www.w3.org/2000/svg" width="3033.7058" height="3083.6001" version="1.0" viewBox="0 0 3033.7058 3083.6001"><g fill="#fff"><path d="M1377.203 3013.1c-182-90.9-230.5-115.8-299.4-153.8-230.5-126.9-388.9-246-506.6-381.2-107.9-123.8-179.8-263.9-213.8-416.1-22.9-102.8-29.7-213.8-20-328.3.8-9.8 1.2-18.1.9-18.4s-76.5 14.1-169.3 31.9c-92.8 17.9-168.9 32.5-169 32.3-.2-.1 10.6-39.3 24.1-87.1l24.6-86.8.7-200 .7-200-21.2-70.8c-11.7-39-21-71.2-20.6-71.5.3-.4 74.7-2.5 165.3-4.8s164.8-4.2 165-4.3c.1 0 .2-160.6.2-356.8V340.6l44.3-.1c132.3-.4 266.7-16 411.7-48 252-55.6 518.5-161.6 705.2-280.6l18.8-11.9 7.2 4.9c66 44.3 177.1 102.4 280.8 146.9 211.5 90.8 439.3 152.8 648.5 176.7 73.1 8.3 130.6 11.8 199.7 12l42.8.1v712.2l19.8.7c10.8.4 86.3 2.2 167.7 4.2 81.4 1.9 148.2 3.7 148.4 3.9s-9.2 32.7-20.9 72.2l-21.2 71.7.6 170.6c.3 93.8.8 191.4 1.1 217l.6 46.5-61 52c-46.9 40-61.5 51.9-63.3 51.7-1.3-.1-40.3-7.6-86.8-16.7-46.4-9-84.5-16.3-84.6-16.2s.7 9.7 1.6 21.2c5.3 62.8 5.5 133.5.4 195-18.1 221.2-106.2 416.1-264 584-123.6 131.4-287 248-526.9 375.7-56 29.9-90.3 47.3-241.5 122.7l-149.5 74.6zm295.2-56.3c177.1-89 209.3-105.8 284-147.3 208-115.7 356.4-227.4 466.9-351.4 164.4-184.4 242.5-398.8 236.4-648.5-.6-24.9-2.9-63.1-4.7-80l-.7-6-7-1.3c-19.5-3.6-64-11-64.4-10.7-.2.2.4 9.3 1.3 20.2 3 38 3.9 65.7 3.3 110.8-.6 43.2-1.2 56.5-4.2 85.5-.9 8-2.2 23.3-3 34-5.3 70.6-18.3 127.7-43.1 190.2-25 63-57.5 119.2-108.3 187.3-38.3 51.3-60.4 76.9-103.5 120.1-66 66-128.9 116.7-220.1 177.4-54.7 36.5-97.8 62.5-182.5 110-42.5 23.9-55.2 31-55.6 31-.2 0-2.9 1.5-6.1 3.4-3.2 1.8-9.8 5.5-14.8 8.1-4.9 2.6-11.7 6.2-15 8s-13.6 7.3-23 12.2c-47.1 24.9-67.3 35.2-175 89.1-53.9 26.9-100.9 50.6-104.3 52.6-4 2.3-7.7 3.6-9.9 3.6-4.8 0-225.6-110.3-296.8-148.3-44.5-23.7-90.8-49.3-125-69.2-11.5-6.7-31.3-18.2-44-25.5-123.5-71.5-218.7-138.9-302-214-32.4-29.2-74.5-72.9-101.6-105.5-16.5-19.7-47.4-59.8-62.1-80.4-79.4-111.2-123.7-229.1-130.8-348.1-.6-10.2-1.5-23.2-2.1-29-3.5-37.1-4.1-48.5-4.6-94.6-.5-49.5.2-73.4 3.3-110.8.8-9.8 1.3-18 1.1-18.2-.4-.4-71 11.6-71.6 12.2-.5.4-2.7 27.5-4.2 50.9-1.6 25.5-1.7 96.4-.1 120.5 9 134.1 38.5 246.9 93.6 357 101 201.8 281.5 371.1 572.6 537.2 80.6 46 147.3 80.9 312.5 163.6 56.1 28.1 115.1 57.8 131 66.1 16 8.2 29.2 15 29.6 15 .3.1 69.8-34.7 154.5-77.2m-155.3-242.5 93.7.3v-2.5c0-1.4 12.7-41.6 28.2-89.4 23.2-71.5 28.6-87 30.3-87.6 1.7-.8 1.6-.9-1-.9-2.3-.1-19.6-12.2-77-53.9l-74-53.8.4-61.5c.3-43.6.7-61.6 1.5-62.1.6-.4-.7-.8-3-.8-2.2 0-6.2-.7-8.8-1.6s-4.9-1.4-5.1-1.2c-.3.2 2.8 1.5 6.7 2.7l7.1 2.3-.6 18.7c-.4 10.2-.7 37.8-.7 61.2v42.6l-72.7 52.9c-67.5 49-73.1 52.9-77.3 53.2-3.4.3-14.3-2.4-45.3-11.3-22.5-6.4-41-11.5-41.2-11.3-.3.2 19.2 6 43.3 12.9l43.7 12.4 28.2 87c15.6 47.9 28.3 88.6 28.3 90.5 0 2.1.3 3 .8 2.2.7-1 20-1.2 94.5-1m330.7-17.7c64.7-37.1 74-42.7 74.5-44.8 2.7-11.9 3.2-54.6.9-74.5-15.4-134.4-76.5-241.1-176.4-307.9-52.5-35.1-113.9-56.8-183.5-64.9-20.6-2.4-63.2-2.4-84-.1-54.5 6.3-102.8 20.3-148.5 43.1-40.6 20.2-75.1 45.5-106.5 77.8-28.4 29.2-47.8 56.4-66 92.3-24.4 48-38.3 98.5-43.6 158.5-1.3 15.4-1.6 53.8-.5 68.1l.8 9.6 11.6 6.8c44.1 25.5 81.4 46.6 81.8 46.2.3-.2-6.5-22.6-15.1-49.7-11-34.5-15.6-50.3-15.3-52.7l.4-3.3h-13.6c-7.6 0-17.2-.3-21.5-.7l-7.8-.6.6-17.1c2.6-71 30.2-147.2 75.1-206.9 8.8-11.7 9.3-12.2 13.1-12.5 3.5-.2 5.1.5 12.5 5.7l8.6 6 2.7 59.3c1.5 32.6 2.7 61.9 2.7 65.1v5.7h3.8c2 0 4.8.2 6.2.5s.4-.2-2.2-1.1l-4.6-1.5-.6-6.2c-.3-3.4-1.8-31.8-3.2-63.1-2.5-55.2-2.5-56.9-.7-58.6 1-1 34.6-25.3 74.7-54l72.9-52.2 6.6.5 6.6.5-5.4-1.9c-3-1-5.6-2-5.8-2.2-.8-.9-5.3-17.5-5.3-19.9 0-2.5.6-2.9 8-5.2 59.8-18.9 132.4-22.5 196-9.6 8 1.6 19.6 4.4 25.8 6.1l11.2 3.1v4c0 2.1-.5 5.9-1.1 8.4-.9 3.6-1.8 4.8-4.3 5.9l-3.1 1.3 3.2.1c3.3.1 4.7 1.1 126.8 86.9 14.2 10 28.7 20.2 29.3 20.7.2.2-2.5 30.6-5.9 67.6-5 54.4-6.5 67.6-7.7 68.7-1.4 1-1.2 1.2 1.1 1.2 2.5 0 2.7-.3 2.7-4 0-2.2 2.7-33.1 6-68.6s6-65.3 6-66.2c0-1 3.1-3.8 7-6.4 5.3-3.7 7.7-4.8 10.8-4.8 3.7 0 4.2.4 10.9 8.8 31.4 39.3 54 81.1 67.7 125.2 9.6 30.9 16.6 71 16.6 94.6v9.2l-18.5.7c-10.1.4-19.1.5-20 .2-1.2-.5-1.5.1-1.5 3 0 2-7.9 27.8-17.5 57.3s-17.5 54-17.5 54.4.3.5.8.3c.4-.3 9.9-5.7 21.2-12.2m-785-565.5c0-452.6-.1-492-1.6-492-3.6 0-80.9 6.2-112.4 9.1-134.9 12-291.1 30.9-409.2 49.5l-10.8 1.7V1804c0 87.6.3 106.8 1.5 118.1 11.9 104.1 37.4 192.9 80.2 278.5 9.6 19.2 10.8 21.3 21.2 38 54.9 88.3 129.6 173.1 216.4 245.9 36.6 30.6 98.5 72.8 156.6 106.6 21 12.2 56.1 31.8 57.4 31.9.4.1.7-221.3.7-491.9m968 459.2c64.7-38.3 83.5-50.1 109.9-69 143.1-102.6 242.3-219 301.9-354.2 50.7-115 75.2-256.8 69.3-401.5-1.2-29.1-3.6-65.3-4.4-66.1-.2-.2-16.8-2.9-36.8-5.9-122.3-18.3-259.9-34.6-387.9-46-27-2.4-103.7-8.5-106.6-8.5-1.2 0-1.4 75-1.4 492.1v492.1l4.8-2.8c2.6-1.5 25.6-15.1 51.2-30.2m-755.5-81.2c-1.1-.5-2.7-.9-3.5-.9-.9 0-.8.4.5.9 1.1.5 2.7.9 3.5.9.9 0 .8-.4-.5-.9m-7-2c-1.1-.5-2.7-.9-3.5-.9-.9 0-.8.4.5.9 1.1.5 2.7.9 3.5.9.9 0 .8-.4-.5-.9m220.1-212.6c-3.9-1.3-7.5-2.4-8-2.3-1.5.1 11.6 4.7 13.4 4.7.8 0-1.6-1-5.4-2.4m-19-6c-3.9-1.3-7.5-2.4-8-2.3-1.5.1 11.6 4.7 13.4 4.7.8 0-1.6-1-5.4-2.4m-22-7c-3.9-1.3-7.5-2.4-8-2.3-1.5.1 11.6 4.7 13.4 4.7.8 0-1.6-1-5.4-2.4m-22-7c-3.9-1.3-7.5-2.4-8-2.3-1.5.1 11.6 4.7 13.4 4.7.8 0-1.6-1-5.4-2.4m-143.4-351.6.3-175.3 100.8-.3 100.7-.2v-33h-231v384h29zm55 102 .3-73.3 66.3-.3 66.2-.2v-33h-162v180h29zm446.8 56.8v-16.4l-42.2-.5c-46-.5-47.6-.6-66.2-6.8-40.4-13.4-72.4-47.2-87.5-92.4-7.8-23.3-8.6-29-8.6-63 0-27.5.2-30.9 2.3-40.5 7-32.1 18.9-54.9 39.1-75 16-15.9 33.7-26.7 54.1-33 18.2-5.7 23-6.1 67.8-6.7l41.2-.5v-32.6l-11.7-.7c-17.7-1.1-50.7.1-66.1 2.4-44.9 6.8-79.9 22.9-105.7 48.6-22 22.1-38 53.3-44.9 87.7-3.5 17.3-4.6 26.8-5.3 45.8-1.2 35.3 5.8 68.7 21.1 100.4 9.8 20.4 18.7 33.4 33.1 48.5 26.8 28 61.7 45.8 98.1 50 3.8.5 23.7.9 44.2 1l37.2.1zm0-61.2V2004l-18.2.7c-44.7 1.6-78.3-4.4-97.5-17.4-7.4-5-18.1-16.3-22-23.3-14.2-24.9-16.8-66.8-6.2-99.3 5.5-16.7 13.2-27.9 25.7-37.3 9.2-6.9 19.3-11.6 31.9-14.7 17-4.3 25.9-5.1 57.1-5.1h29.2v-32.7l-38.7.5c-31 .3-40.2.8-45.5 2-22.2 5.4-39.6 14.7-55.3 29.8-17.9 17.2-31 41.6-37 68.9-2.2 10-3.1 39.8-1.6 51.4 3.3 24.3 13.1 48.4 26.6 65.3 15.7 19.6 35.8 33.1 59.1 39.8 13 3.7 20.1 4.2 58.2 4.4l34.2.1zm-314-147.9v-16.5l-66.2-.2-66.3-.3v-47l73.3-.3 73.2-.2v-33h-176v114h162zm-1357.8-160.9c331.8-66.7 666-110.1 992.3-129.1 49.4-2.8 46.7-2.6 46-4.4-1.1-2.6-14.8-38.2-22.4-58.2l-7.1-18.6v-99.9c0-55 .3-129.3.7-165.1l.6-65.3h6.6l6.5 20.3c10.2 31.9 14.4 45.6 32.1 104.2 9.1 30.3 20.1 66.5 24.5 80.5l7.8 25.5-.5 46.5-.5 46.5-15.9 41.9c-8.7 23.1-15.7 42.1-15.5 42.3s9.7-.1 21.2-.6c170.4-8.5 403.5-9.7 587.4-3.1 84.7 3.1 170.1 7.7 251.7 13.5 18.9 1.4 34.8 2.5 35.4 2.5.8 0 1-8.1.8-30.2l-.4-30.3 3.5-.3c3.4-.3 4.8.8 26.5 21.1 12.7 11.7 29.1 27 36.5 34 8.3 7.9 14.2 12.7 15.5 12.7 2.4 0 88 8.2 112.6 10.8l16.7 1.7 10.8-8.4c6-4.7 23-18.1 37.8-29.8 32.8-25.9 32.2-25.7 36.1-13 1.3 4.5 6.3 20.6 10.9 35.7l8.4 27.5 18.3 2.3c31.2 3.8 85.9 11.1 118.4 15.8 17.1 2.4 31.8 4.4 32.7 4.4 1.5 0 31.8-23.6 70.4-54.9 13.8-11.2 16.7-13.1 19.5-13 3.1 0 5 1.8 25 24.2 11.9 13.3 30.8 34.7 41.9 47.5 11.3 12.9 21.2 23.4 22.4 23.7 1.2.2 15.2 2.7 31.1 5.5 16 2.8 45 8 64.6 11.7l35.6 6.6 23.4-19.8c12.9-10.8 33.4-28.3 45.7-38.9l22.2-19.1-.5-38c-.3-20.9-.8-115.6-1.1-210.5l-.6-172.5 13.7-46.3c7.6-25.4 13.5-46.6 13.1-46.9-1.7-1.7-272.5-7.7-419.6-9.3-52-.5-97.5-1.2-101.2-1.5-3.8-.3-6.8-.3-6.8-.1 0 .3 6.8 19.7 15 43.3l15.1 42.8.9 109c.5 60 1 129.4 1 154.4v45.4l-11.2-.6c-21.7-1.3-43.2-7-82.5-22.2l-20.3-7.7v-86.4l7-39.3c3.9-21.7 6.9-39.6 6.6-39.8-.5-.5-57.1-3.9-121.1-7.3-27.5-1.5-41.2-2.6-41.7-3.4-.4-.6-.8-11.8-.8-25v-23.9l16.8.6c28.9 1 42.9 4.2 98.4 22.4 21.3 7 39 12.5 39.2 12.2.3-.2-2.8-11-6.9-23.9-4-12.9-16.4-52.3-27.4-87.4-11-35.2-20.4-64.3-20.8-64.7-.5-.4-39.2-1.2-86.2-1.8l-85.3-1.2-4.2 3.4c-2.2 1.9-15.8 13.2-30.1 25.1-21.9 18.1-26.5 21.5-29.2 21.6-3.1 0-3.3-.2-3.3-3.4 0-1.9 3.6-13.2 8-25.1s8-21.8 8-21.9c0-.5-166.1-1.7-366-2.6-193.9-.9-572.6.1-703.5 1.8l-52 .7-18.5 55.7-18.5 55.8h-7l-18.5-55.6-18.5-55.5-34 .6c-18.7.3-65.5 1-104 1.5-68.2 1-154.1 2.4-236.7 3.9-22.4.4-41 1-41.4 1.4-.3.3 4.1 14.6 10 31.7 12.1 35.7 12 34.8 8.1 56-4.5 24-14.2 81.8-26 155-12.6 77.9-17 104.1-24.6 146-4.4 24.5-14.1 74.8-15.6 80.8-.4 1.7-1.2 2.2-3.9 2.2h-3.4v-34.7c0-19.2.5-104.8 1.1-190.3l1-155.5 15.1-45.3c8.2-24.9 14.8-45.5 14.6-45.8-.9-.8-381.7 8.1-382.6 9.1-.2.2 5.8 20.9 13.4 46.1l13.7 45.7-.8 208.1-.7 208.1-14.8 52c-8.1 28.6-15.1 53.1-15.5 54.4-.6 2-.4 2.3.9 1.8.8-.3 22.8-4.9 48.8-10.1m343.6-966.3.2-293.1 10.3-.6c5.6-.3 20.6-1 33.2-1.6 147.7-6.8 311.5-34.9 469.5-80.5 186.2-53.8 380.4-136 530.2-224.6 10-6 17.8-9.9 19.4-9.9s11.7 5.1 25.3 12.9c98.8 56.2 196.9 103.8 295.1 143.1 152.8 61.1 303.7 104.5 456 130.9 83 14.4 181.4 25.3 259 28.6 7.4.3 16.8.8 20.8 1.1l7.2.6v586.8l36.3-.2 36.2-.3v-656l-42-.6c-50.6-.8-80.2-2.4-131.5-7-232.5-20.8-486.7-89.7-722.5-195.7-83.3-37.4-168-82-228.7-120.3l-11-7-16.6 10.4c-27 16.8-41.7 25.3-80.2 46.5-21.3 11.8-64.9 33.9-95 48.2-211.9 100.8-443.4 172.5-661.5 204.9-86.9 13-176.8 20.1-252.7 20.1h-29.8v657l36.3-.2 36.2-.3zm607.2-15.8c0-170.2-.3-309.5-.8-309.5-.4 0-9.3 2.7-19.7 5.9-42.2 13.1-82.2 24.3-125.5 35.1-139.6 34.9-257.5 54.3-365.2 60.2l-22.8 1.2v516.6h534zm1445 51.2V522.5l-22.2-1.2c-140.1-7.8-317.3-42-485.5-93.8-13.3-4-24.4-7.4-24.7-7.4-.4 0-.6 139.3-.6 309.5v309.5h533Zm-1010.8 170.1c19.1-5.2 35.6-14.7 49.3-28.3 25.6-25.3 35.8-59 27.4-90.7l-1-3.8h-8c-7.3 0-8 .2-7.4 1.8 1.4 3.6 3.4 16.9 3.4 23.2.1 23.4-8.6 44.5-25 60.9-10.6 10.6-22.2 17.4-38.1 22.3l-7.3 2.3-121 .5-120.9.5 3.9 4.4c2.2 2.4 5.8 5.7 7.9 7.3l4 2.9 111.5-.3 111.6-.3zm158.2-68.3 59.8-71.5h35.8v3.8c0 3.5-3.7 8.2-56.6 71.2l-56.6 67.5 9.3.3c5.1.1 9.8.1 10.5-.2.6-.2 10.5-11.5 21.8-25 19.4-23.1 20.9-24.6 24-24.6s4.6 1.5 24.2 25l20.9 25h20.7l-3-3.7c-1.7-2.1-13.6-16.4-26.6-31.8-18.5-22-23.6-28.6-23.6-30.8 0-2.1 2-5.2 7.6-11.8 12.2-14.4 7.8-17.4 51.4 34.6l36.5 43.5h20.7l-4.4-5.2c-2.3-2.8-21.3-25.4-42-50.2-33.4-39.7-37.8-45.3-37.8-48.3 0-2.9 2-5.8 13-19 15-18 14.8-15.6 3.1-27.6l-7.5-7.8-147 .3c-139.7.3-147.4.4-152.6 2.2-26.2 8.7-45.3 32.7-45.3 56.6 0 7.4 1.2 12.5 4.9 20.4l2.5 5.6h8c4.3 0 7.9-.2 7.9-.4 0-.3-.9-2-1.9-3.8-6.8-11.5-6.5-31.9.6-45.1 3.6-6.6 13.2-15.1 20.2-17.9l5.6-2.3h228l.3 3.6c.3 3.4-2.3 6.7-55 69.5-30.4 36.3-55.9 66.7-56.7 67.7-1.3 1.6-.7 1.7 9 1.7l10.4-.1zm-165.2 26.4c3.7-1.5 9.3-4.2 12.4-6 7.9-4.8 18.3-16.2 22.7-25.1 8.2-16.3 8.8-29 2-44l-2.6-5.8h-16.4l3.1 6.2c3 6 3.1 6.7 3.1 19.3 0 12.5-.1 13.2-3.2 19.7-4.2 9-11 16-19.2 20.1l-6.6 3.2-111.7.3-111.8.2v-143h-17v143h-28v-143h-17V821c0 44.9.4 67.9 1.1 69.8.5 1.5 5.3 7 10.6 12.1l9.5 9.2 131.1-.2 131.2-.3zm-105-32.6c-1.2-3.6-1.6-9-1.6-21.8-.1-16.7 0-17.2 3.2-26.5 9.8-28.4 31.9-48.5 62.3-56.7 5.9-1.6 18-1.8 143.2-2.3l136.9-.5-6.5-6.2c-3.6-3.5-7.7-6.7-9.2-7.3-3.4-1.3-236.2-1.3-249.7 0-14.4 1.4-24.9 4.4-38.3 11-35.4 17.3-58.6 51.8-58.7 87.5-.1 9.5 2 23.5 3.9 26.8.2.4 3.9.7 8.3.7h7.8zm-114.3-230.8 23-11.4-22.4-45.7c-12.8-26-22.5-46.8-22.5-48.4 0-2.5 5.3-6.3 69.3-48.1 205.1-134.3 196.7-128.9 200.4-128.9 3.6 0 4.3.4 86.8 54.5 15.4 10 40.2 26.2 55 36 141.3 92.4 127.5 82.9 127.5 86.8 0 2.4-6.5 16.6-22 48.1-12.1 24.5-22 45-22 45.4 0 1 46.8 23.7 47.5 23.1.4-.5 47.6-95.8 60.5-122.4 5.1-10.5 6.5-14.3 5.7-15.1-1.2-1.2-337.6-221.4-338.7-221.7-.3-.1-77.1 49.9-170.7 111.1l-170.1 111.3 33.7 68.4c18.5 37.7 34.1 68.5 34.8 68.5.6 0 11.5-5.2 24.2-11.5m223.1-9.9c6.2-3 9.8-8.5 11.1-16.8.6-4 .9-23 .7-48.4-.3-40.3-.4-42.1-2.4-46.4-2.7-5.7-6.8-9.5-12.3-11.5-12.1-4.2-24.3.5-29.5 11.5-2 4.3-2.1 6.2-2.4 45.8-.4 42.8.2 51.5 3.6 58 5.1 9.9 19.6 13.5 31.2 7.8m138.9 1.8c5.7-1.7 12.3-6.9 14.8-11.8 2.2-4.2 3-22.7 1.3-31.8-1.3-7.3-4.9-13-9.1-14.3-1.4-.5-1.9-1.5-1.9-3.8 0-2.6.7-3.5 3.3-4.8 2-1 4.1-3.3 5.7-6.5 2.4-4.6 2.5-5.7 2.5-20.9 0-14.7-.2-16.4-2.2-20.2-6.1-11.3-21.5-15.5-32.9-8.8-8.5 5-11.4 11.4-11.4 25.3v8.2h11v-10.4c0-9.6.2-10.7 2.4-13.3 2.3-2.6 2.9-2.8 10.1-2.8s7.8.2 10.1 2.8c2.3 2.8 2.4 3.2 2.4 21.3 0 23.2-.4 24.4-8.5 24.4h-5.5v11h5.5c8.2 0 8.7 1.4 8.3 24.7-.3 18-.4 18.5-2.7 20.4-3.3 2.7-15.9 2.7-19.2 0-2.2-1.8-2.4-2.8-2.7-13l-.4-11.1h-10.8v8.3c0 4.9.6 10.2 1.5 12.9 2.1 5.9 8 11.6 14.7 13.9 6.5 2.3 7.2 2.3 13.7.3m-198.9-5.9v-5.5h-36v-7.2c0-4 .5-9 1-11 1.5-5.3 6.5-11.4 14-17 18.3-13.9 21-19.9 21-46.9 0-16.3-.8-20-5.8-25.3-3.8-4-11.8-7.6-17.2-7.6-5.3 0-13.3 3.5-17.4 7.6-4.5 4.5-5.6 8.3-5.6 19.4v10h10v-9.4c0-11.1.9-14 4.9-16.1 3.8-1.9 12.3-2 16 0 4.3 2.2 5.1 6 5.1 23.8v15.9l-3.6 6.8c-3.5 6.7-7.6 11.1-20.8 22.3-3.1 2.7-6.6 6.7-7.7 8.9-4 7.7-6.1 24.6-4.3 33.7l.7 3.1h45.7zm143 0v-5.5l-17.7-.2-17.8-.3-.3-4.7c-.5-7.4 1.5-15.8 4.7-20.3 1.6-2.2 6.8-7 11.7-10.7 16.8-12.7 19.5-18.9 19.4-45.1 0-18.4-.6-21.2-6.1-26.6-8.8-8.9-23-9.2-32.7-.7-5.5 4.9-7.2 9.5-7.2 20.9v9.7h11v-10.4c0-5.7.3-11.2.6-12.1 1-2.5 5.9-4.5 11.3-4.5 11.9 0 13.1 2.2 13.1 25.1v17.2l-3.1 5.6c-4.2 7.5-7.8 11.4-17 18.9-8.1 6.5-11 9.8-13.4 15.5-2.1 5-3.6 19-2.8 26.9l.6 6.8h45.7z"/><path d="M113.803 1670.4c0-1.5.9-4.6 2.1-7 5.6-11.5 8.9-42.2 12-111.3.6-13.2 1.3-96.5 1.6-189.5l.5-166-7.6-25.2c-4.2-13.8-7.6-26.3-7.6-27.6 0-2.4.3-2.5 7.8-3.1 4.2-.3 21.4-.8 38.2-1.1s35.5-.8 41.6-1.1l11-.6 7.7 27.3c4.3 15.1 22 77.5 39.5 138.7l31.7 111.3.6-20.3c1-34.2.9-173.9-.1-197.8-1.1-23.2-3.2-44.8-5-51-.5-1.9-1-4.9-1-6.6v-3.1l39.3-.7c21.5-.3 46.1-.9 54.5-1.3l15.2-.6v4.4c0 2.9-2.5 12-7 25.4l-7.1 21-.6 41c-.3 22.6-1 121.6-1.7 220.2-.6 98.5-1.4 179.4-1.8 179.8-.8.8-67.6 12.3-76.4 13.2l-6.1.6-2.1-6.9c-3.6-12.1-42.3-146.7-59.8-208.2l-16.9-59.2-.8 72.7c-.6 49.2-.5 88 .2 119.8 1.2 49.3 2.1 64.5 4.7 78.5 2.9 15.4 2.9 16.8.2 17.5-1.2.3-15.3 3-31.3 6-15.9 3-38 7.3-48.9 9.5-11 2.2-21.5 4-23.3 4-2.9 0-3.3-.3-3.3-2.7M2822.303 1653c-11-2.1-31.7-5.8-46-8.4-14.3-2.5-28.3-5-31.1-5.6-4.7-.9-5.6-1.6-12.2-9.3-3.9-4.6-18.3-20.9-32-36.4l-25-28.1-.5-148.8c-.3-87.5-.9-157.7-1.6-170.3-3.1-61.5-6.7-90.5-12.5-102.5-1.5-2.9-2.6-6.5-2.6-8v-2.8l14.8.6c8.1.4 32.6 1 54.5 1.3l39.7.7v3.1c0 1.7-.7 6.3-1.5 10.1-4.8 23.4-6.2 101-4.6 263.9l1.2 130 3.9 6.6c3.7 6 8.8 11.3 15 15.2 1.4.9 6.8 2.2 12.1 2.9l9.6 1.2 6.1-3.3c5-2.6 6.9-4.4 10.3-9.7l4.2-6.4-.6-135.7c-.8-181.2-2.9-246.9-8.2-265.9-.8-2.8-1.5-6.3-1.5-7.9v-2.7l31.3.6c17.1.4 41.9 1 55 1.4l23.7.6v3.6c0 2-3.3 14.5-7.2 27.6l-7.3 24 .3 127.5c.1 70.1.5 162.4.8 205l.6 77.6-13.8 12c-7.7 6.6-21.5 18.4-30.7 26.2-15.3 12.9-17.1 14.2-20.5 14.1-2-.1-12.7-1.8-23.7-4M449.103 1609.4c.2-2.7 3.4-16.3 7-30.3 15.7-60.2 25.8-114.1 45.7-244 11.8-76.6 18.3-116.2 24.6-149.7l4.6-24.1-4.1-11.8c-2.3-6.5-4.1-13-4.1-14.5 0-2.5.3-2.7 6.8-3.2 3.7-.4 32.5-.9 64-1.3l57.2-.7v3.6c0 1.9-1.8 8.6-4 14.7l-3.9 11.2 1.5 8.7c.8 4.7 1.9 11.1 2.4 14.1.6 3 2.6 15.4 4.6 27.5 1.9 12.1 5.1 31.5 7 43 1.9 11.6 7.5 45.3 12.4 75s13.5 80.8 19.1 113.5 10.3 60.9 10.6 62.5c3.5 23.4 5.6 31.9 12.3 50 6.4 17.4 8.4 25.5 6.1 25.5-1.5 0-51.9 6-76.2 9-13 1.7-24.6 3-25.8 3-3 0-2.8-2.6 1.8-27.5 2.1-11.5 3.7-22.6 3.4-24.5-1.5-13-.5-11.5-9.3-15l-8-3.2-21.5 2.5-21.5 2.4-7.5 4.9c-4.1 2.7-7.5 5.6-7.6 6.4 0 .8-.4 4.2-.8 7.5-.7 4.7-.1 10.4 2.5 27 2.9 18.1 4.1 28.5 3.2 28.5-1 0-53.6 7.5-73.1 10.4-13.1 2-25.2 3.6-26.9 3.6-3 0-3 0-2.5-4.7m140.7-158.9c5.6-.6 7.4-1.3 13.6-5.6l7-4.9-2.3-20.2c-3-26.1-9-72.2-15.8-121.4-3-21.5-5.5-39.8-5.5-40.7 0-3.4-1.8-1.4-2.3 2.7-.3 2.3-4.4 31-9.1 63.7-8.6 59.8-15.6 112.5-15.6 117.8 0 2.4.8 3.2 7.3 6.5 6 3 8 3.6 11.7 3.2 2.5-.2 7.4-.7 11-1.1M2504.303 1602.5c-16.5-2.4-44.4-6.1-62-8.4-17.6-2.2-33.3-4.4-35-4.8-2.9-.7-3-1.2-14.6-38.7-6.5-20.9-11.8-39.7-11.8-41.7-.1-3.7 0-3.8 3.3-3.8 1.9 0 8 1.9 13.6 4.1 19 7.6 43.4 12.7 79.3 16.5l15.9 1.7 6.8-2.7c6-2.4 7.2-3.4 10.9-8.6l4.1-5.8v-114.9c0-63.1-.5-127.2-1-142.3-2.3-65.3-6-98.2-12.5-111.6-1.4-2.8-2.5-6.3-2.5-7.9v-2.7l9.8.6c5.3.3 29.7.9 54.1 1.2l44.4.7-.6 6.6c-.3 3.6-1.8 14.3-3.3 23.6l-2.7 17 .1 50.5c.6 146.7 1.3 267.9 1.8 295.1l.6 30.6-31.4 25.2c-26.1 20.9-31.8 25.1-34.3 25-1.6-.1-16.5-2.1-33-4.5M756.803 1571.6c0-1.5 1.1-5.1 2.4-7.9 5.5-11.4 8.8-38.7 11.7-97.6.6-11.8 1.3-82.1 1.6-156.2.5-125.5.4-135-1.2-140-1-2.9-4.2-12.2-7.1-20.6-3-8.3-5.4-16.5-5.4-18.1v-2.9l22.3-.7c12.2-.3 35.6-.5 51.9-.3l29.8.3 32.6 97.8c18 53.7 33 97.7 33.3 97.7.4 0 3.2-7.8 6.3-17.2 3.1-9.5 17.7-54 32.4-98.8s26.7-81.6 26.8-81.6c0-.1 23.4-.5 51.9-.9l51.7-.7v3.2c0 1.7-3.2 11.6-7.1 21.8l-7.1 18.7-.2 14.5c-.2 8-.6 83.4-1 167.5l-.8 153 7.1 18.4c3.9 10.1 7.1 19.9 7.1 21.7 0 3.1-.2 3.3-4.2 3.8-2.4.3-9.5.8-15.8 1.1-6.3.4-27 1.7-46 3.1-44.5 3.1-42 3.1-42-.5 0-1.6.4-4 .9-5.3 1.4-3.7 4-23.7 5.1-38.8 1.3-17.4 3.2-128.6 2.8-162.9l-.3-26.4-5.6 13.9c-3.1 7.6-16.9 41.4-30.6 74.9-13.7 33.6-26.3 64.3-27.8 68.3-2.8 7.3-2.9 7.3-6.3 7l-3.5-.3-9.4-22.5c-5.1-12.4-19.5-47.6-32-78.3l-22.8-55.8-.8 37.3c-1 46.9-.2 144.6 1.3 163.8.6 8 2 18.8 3.1 24.2 2.9 14.6 2.9 14.5-3.3 15.2-14.6 1.6-88.2 8.9-94.5 9.3l-7.3.6zM2240.303 1570.5c-6.6-.7-28.6-2.9-48.8-4.8l-36.8-3.6-7.3-6.7c-4-3.8-18.3-17.1-31.8-29.6l-24.6-22.8-.6-90.7c-.3-49.9-.9-123.1-1.2-162.8l-.6-72 12.3-10.1c6.8-5.5 20.9-17 31.2-25.6l18.9-15.7 48.1.6c26.5.4 57.1.9 68.1 1.3l19.8.6 11.9 37.5c6.5 20.6 11.8 39.2 11.9 41.4v3.8l-3.7-.5c-2.1-.3-7.7-1.9-12.5-3.6-18.7-6.8-40.7-10-74-10.8l-23.6-.6-6.9 4.3c-5.2 3.2-7.8 5.6-10.5 9.9l-3.6 5.6 1 131 .9 131 4.3 6.6c3.4 5 5.8 7.4 10.5 10.2 5.5 3.2 7.4 3.8 15.8 4.6 9.3.8 9.8.8 15.8-2 5.1-2.3 7.1-3.9 10.8-9l4.6-6.1-.6-57.2-.6-57.1-7.3-20.4c-4.1-11.2-7.4-21.9-7.4-23.8v-3.4l8.3.6c4.5.3 25.5 1.4 46.7 2.5s42 2.3 46.3 2.6l7.7.7v4.6c0 2.6-.9 9.6-2 15.7-1.2 6-2.6 13.8-3.3 17.4-.8 4.6-1.1 28.9-1.2 83.5v77l-30 23.7-30 23.7-7-.1c-3.8 0-12.4-.7-19-1.4M1375.503 1524.8l-12.8-34.2.1-45.6v-45.6l5.5-17.4c3.1-9.6 10.6-34 16.6-54.4 26.6-89.2 37.6-123.5 49.9-156.5 6.5-17.4 18.4-46.2 24.5-59.3l3.6-7.8 3.7.3 3.6.3 8.3 21c9.9 25 9.8 23.4 3.4 53.5-5.4 25.2-11.3 57.4-20.1 109.5-12.9 76.6-17.6 101.5-26.6 141.1-10.2 45.3-23.2 88.4-36.9 122.7-2.7 6.6-2.8 6.7-6.4 6.7h-3.6zM2006.303 1550.4c-1.6-.2-16.9-1.2-33.9-2.3s-31.1-2.2-31.4-2.4c-.2-.3-9.6-27.4-20.8-60.2-11.2-32.9-29.5-86.3-40.6-118.7l-20.3-59-.3 63.4c-.4 84.5 1.3 133.8 5.5 154.4.8 4.4 1.8 10 2 12.4l.5 4.4-10.3-.7c-18-1.1-79-3.6-89.1-3.6h-9.8v-3.7c0-2.1 3-11.3 7-21.9l7-18.3.2-123.8c.2-120.8-.3-149.6-3.2-186.3-2.2-27.3-5.9-46.7-9.9-52.1-1.2-1.6-2.1-4.2-2.1-5.9v-3.1l48.4.3c26.6.2 48.7.6 49.1 1 .6.5 40.6 114.9 72.1 206.1l8.9 25.8.7-21.3c.8-25.4.1-106.4-1.3-140.8-1.1-29.4-2.5-45.1-4.6-54.5-.9-3.8-1.8-8.9-2-11.2l-.5-4.3h18.4c10.2 0 34.7.3 54.6.7l36.2.6v2.8c0 1.5-3 10.8-6.7 20.6l-6.8 17.8v90c0 49.5.3 136 .8 192.3l.7 102.2-7.7-.2c-4.3 0-9.1-.3-10.8-.5M1220.803 1536.7c0-1.9 3.1-11.7 6.9-21.8l6.8-18.3.7-47.5.7-47.5-6.1-19c-3.4-10.4-11.3-36.5-17.6-58-31.5-106.8-40.6-135.2-54.7-172-4.4-11.5-8.2-22.6-8.4-24.6l-.5-3.6 28.8-.6c15.8-.4 39-.7 51.6-.7h22.8v39.9l13.5 65.8c7.5 36.2 13.9 66.8 14.3 68.1.5 1.6 2.5-6.1 7-26.5 16.9-78.4 23.2-115.2 23.2-136.9v-10.4h102v2.9c0 1.6-2.9 10-6.4 18.8-16.3 40.2-26.3 70.8-55 168.3-6.9 23.4-15.5 51.7-19.3 63l-6.7 20.5-.3 47.8-.4 47.9 7.1 18.7c3.8 10.3 7 20.1 7 21.8v3l-23.2.7c-35.7 1-75.3 2.5-85 3.2l-8.8.6zM1663.303 1535c-14.8-.3-32.5-.7-39.2-.8l-12.3-.1v-5c0-2.8 1.4-12.1 3.1-20.8 2.6-13.1 3-16.9 2.4-23.5l-.7-7.7-7.7-3.7-7.6-3.6-21-.4-21-.4-8.1 3.9c-7.7 3.8-8.1 4.2-8.7 7.8-1.2 7.2-.7 13.4 2.3 29.6 1.7 8.8 3 17.5 3 19.4v3.4h-24.3c-13.4 0-36.6.3-51.5.7l-27.2.6v-4c0-2.2.7-6 1.5-8.4 5.4-15.2 15.6-52.6 22.6-82.6 8.9-38.7 16.3-77.6 30.4-160.8 7.7-45.2 15.8-89.3 20.6-112l4.1-18.9-3.6-9.1c-2-5-3.6-10.8-3.6-12.9v-3.9l21.2.6c11.6.4 40.2.7 63.5.7h42.3v3c0 1.7-1.6 7.2-3.6 12.3-2.2 5.7-3.4 10.3-3.1 12.2.2 1.7 2.7 14.3 5.5 28 5.9 28.9 10.9 56.3 22.2 122 18.1 105 29.4 157.2 46 211.9 2.7 9.1 5 18.1 5 20v3.6l-12.7-.2c-7.1-.1-24.9-.5-39.8-.9m-65-131.8c6.7-3.7 7-3.9 6.7-7.2-.3-4.3-23-146.5-23.9-149.9-.7-3 .1-6.5-7.7 35.5-9.5 51.1-19.5 116-18.1 117.3.3.3 3.6 2.2 7.3 4.3 6.6 3.7 6.9 3.7 17.7 3.8 10.9.1 11 0 18-3.8M728.303 1441.9c-2.3-9.6-45.5-274.5-45.5-278.8 0-4.4 2-11.1 10.1-34.2l10.2-28.8h7.4l13.3 38.1 13.2 38.1-.7 133.9-.8 133.9h-3.3c-2.7 0-3.5-.5-3.9-2.2M1727.903 1426.9c-7.1-35.3-52.1-273-52.1-275.3 0-1.6 4.9-15.8 10.9-31.5l11-28.5h7.4l14.7 38.1 14.8 38 .7 132.2.8 132.2h-3.6c-3.5 0-3.6-.1-4.6-5.2M1472.703 626.2l-2.4-1.9v-98.4l2.9-2.5c2.7-2.3 3.6-2.5 9.9-2.1 6.1.3 7.2.7 9.3 3.2l2.5 2.8-.3 48.5-.3 48.5-2.4 1.9c-3.3 2.7-15.9 2.7-19.2 0"/></g><g fill="#00a73c"><path d="M1832.803 2706.8c0-1.8 7.6-26.1 16.9-54.2l16.9-51 4.9-.7c2.6-.3 10.3-.7 17.1-.7l12.2-.1v3.3c0 3.1-.5 3.6-9.6 8.8l-9.7 5.5-7.8 19c-4.3 10.4-12 29.2-17.2 41.9l-9.5 23-7.1 4.2-7.1 4.2zM1193.803 2703.9c-3.6-2-7-4.1-7.5-4.6-.6-.5-7.5-16.6-15.4-35.8s-14.8-35.4-15.3-36.1-5.2-3.6-10.4-6.5c-9-5.1-9.4-5.4-9.4-8.7v-3.4l12.8.6c7 .4 14.8.7 17.4.7h4.7l15.1 46.1c8.6 26.2 15 47.2 14.8 48.7l-.3 2.8zM1042.703 2617.2c-77-42.2-151.4-91-197.6-129.7-86.8-72.8-161.5-157.6-216.4-245.9-10.4-16.7-11.6-18.8-21.2-38-42.8-85.6-68.3-174.4-80.2-278.5-1.2-11.3-1.5-30.8-1.5-121.1v-107.6l10.8-1.7c52.5-8.3 144.9-20.9 208.7-28.5 110.7-13.3 185.6-20.4 316.8-30.4l3.7-.3v496.8c0 273.3-.3 496.8-.7 496.8-.5 0-10.5-5.4-22.4-11.9M1379.803 2544.6c0-2.4.5-3.5 1.5-3.5.8 0 1.5-.4 1.5-.8 0-.5 1.9-2.2 4.3-3.8 2.3-1.7 31.3-22.2 64.3-45.7 54.6-38.7 60.6-42.7 64.1-42.7 4.3 0 .5-2.7 73.3 51.6 18.4 13.7 38.3 28.5 44.3 32.9 9.8 7.3 10.7 8.3 10.7 11.2 0 6.8-2.1 5.7-67.5-34.8l-61.6-38.1-62.7 37.6c-34.6 20.7-63.4 37.6-64 37.6-.7 0-1.2.5-1.2 1 0 .6-1.6 1-3.5 1-3.3 0-3.5-.2-3.5-3.5M1252.003 2356.4c.3-3.6 2.2-5.2 64.8-56 55-44.5 65-52.3 67.7-52.3 2.8 0 3.3.4 4.3 3.8.6 2 1.4 6.6 1.7 10.2l.5 6.5-58.8 40.5c-32.4 22.2-62.4 42.8-66.6 45.7-5.2 3.6-8.6 5.3-10.8 5.3-3 0-3.1-.2-2.8-3.7M1708.303 2309.3c-77.1-53-70.3-46.9-67-60.4l1.7-6.9 3.8.3c3.4.3 11.5 6.5 69.9 53.8 62.8 50.8 66.1 53.7 66.1 56.8 0 3-.2 3.2-3.2 3.2-2.7 0-16.2-8.9-71.3-46.8M1249.803 1906.1v-195h118.3c65.1 0 118.6.2 118.8.4s.3 9 .1 19.5l-.3 19.1-100.7.2-100.7.3-.3 175.3-.2 175.2h-35z"/><path d="M1304.803 2008.1v-93h168v39l-66.2.2-66.3.3-.3 73.3-.2 73.2h-35zM1699.403 2100c-36.4-4.2-71.3-22-98.1-50-14.4-15.1-23.3-28.1-33.1-48.5-15.7-32.5-22.3-64.8-21.1-103.8 1.2-39.4 7.4-67.2 21.3-95.1 25-50.3 69-79.6 134.6-89.6 15.3-2.3 53.1-3.6 72.1-2.4l11.7.7v38.6l-41.2.5c-44.8.6-49.6 1-67.8 6.7-20.4 6.3-38.1 17.1-54.1 33-20.2 20.1-32.1 42.9-39.1 75-2 9.5-2.3 13.1-2.3 37.5 0 24.3.3 28 2.3 37.5 13.9 64 53.1 106.5 110.2 119.6 6.2 1.4 14.6 1.8 49.8 2.1l42.2.5v38.8l-40.2-.1c-22.2-.1-43.4-.5-47.2-1"/><path d="M1704.803 2039c-21.9-2.5-46-13.8-63-29.5-20.9-19.4-34.9-47.7-39.1-79-1.6-12.1-.6-47.5 1.6-57.4 2.6-11.9 7.2-24.7 12.6-35.5 16.6-33 43.8-54.5 79.7-63.2 5.4-1.3 14.6-1.7 48.5-2l41.7-.5v38.8h-29.2c-31.3-.1-40 .7-57.1 5-23.6 5.9-41.9 19.1-51.7 37.5-7.3 13.7-12.3 36-12.2 54.9 0 18.7 4.9 39.6 12.5 52.9 3.9 7 14.6 18.3 22 23.3 19.3 13.1 51.6 18.9 96.5 17.2l19.2-.7v39.3l-37.2-.1c-20.5-.1-40.7-.5-44.8-1M1304.803 1832.1v-60h182v39l-73.2.2-73.3.3v41l66.3.3 66.2.2v39h-168zM58.003 1722.4c.5-2.1 7.9-28.1 16.3-57.8l15.3-54 .7-205.5.7-205.5-14.6-48.4c-8-26.6-14.5-48.5-14.3-48.7.5-.5 170.1-4.7 341-8.5 28-.6 51.1-.8 51.4-.6.3.3-6.7 22.3-15.5 48.9l-16.1 48.3-1 155.5c-1.2 172.9-1.4 219.6-.6 218.8.7-.7 10.2-48.3 16.4-82.8 7.2-39.5 13.5-76.8 26.6-158.5 10-61.5 16.9-102.9 25.2-149.9l1.8-9.9-11.9-34.9c-6.5-19.2-11.6-35.2-11.2-35.5.8-.8 117.7-3 279.6-5.3 37.7-.5 85.6-1.2 106.5-1.6l38-.6 18.5 55.6c10.1 30.6 18.7 55.6 19 55.6s8.8-25.1 19-55.8l18.5-55.7 51.5-.7c206.2-2.6 701.2-2.7 996.3-.2 74 .7 81.8.9 81.4 2.3-.2.9-4.3 12.1-9.1 25-4.7 12.9-8.5 23.5-8.4 23.7.2.1 12-9.5 26.3-21.3s27.9-23.1 30.2-25l4.2-3.4 88.3 1.1c48.6.7 88.6 1.5 89 1.9.8.7 6 17 36.2 113.5 11.9 37.9 21.6 69.5 21.6 70.3 0 .7-.2 1.3-.5 1.3s-18.8-6-41.2-13.4c-57.9-19.1-74.8-23.1-101.5-24.3l-13.8-.6v20.9c0 11.5.4 21.4.8 22 .5.8 14.1 1.9 41.2 3.3 63.2 3.4 122.2 6.9 122.7 7.4.2.3-3 19.5-7.1 42.8l-7.6 42.4v80.30000000000001l20.3 7.7c37 14.3 59.2 20.4 79.5 22.1l8.2.7V1443c0-23.3-.5-91.4-1-151.4l-.9-109-16.1-45.7c-8.8-25.1-16-45.9-16-46.3s6.4-.4 14.3-.1c7.8.4 54.7 1.1 104.2 1.6 141.4 1.6 417.5 7.7 419 9.2.4.3-6 22.8-14 49.9l-14.7 49.4.6 165.5c.3 91 .8 185.8 1.1 210.5l.5 45-22.2 19.2c-34.7 29.8-69.9 59.3-70.9 59.3-.4 0-16.2-2.9-35.1-6.4-18.9-3.6-48.7-9-66.3-12.1-17.6-3-32.9-5.8-34.1-6-1.2-.3-10.7-10.3-21.5-22.7-20.2-23.2-51.6-58.5-60.1-67.6l-5-5.3-15.6 12.7c-17.4 14.1-61.6 49.4-67.4 53.7l-3.6 2.8-34.9-5c-35.8-5.1-89.8-12.4-122.2-16.3l-18.3-2.3-10.8-35.3c-5.9-19.4-11-35.5-11.2-35.8-.3-.2-8.8 6.2-18.9 14.2-10.1 8.1-27.3 21.6-38.2 30.1l-19.7 15.4-29.3-3c-33.3-3.5-102.2-10.1-105.2-10.1-1.3 0-7.4-5-15.5-12.7-31.3-29.5-59.4-55.3-59.8-54.8-.3.2-.4 14-.3 30.5l.2 30h-4.1c-2.2 0-19.4-1.1-38.3-2.5-190.6-13.7-373.1-19.2-579.5-17.3-91 .8-143.7 2.2-243.5 6.4-21.3.9-39 1.4-39.3 1.1s7.1-20.7 16.4-45.4l17-44.8.3-44.5.3-44.5-7.6-24.5c-4.2-13.5-15.8-51.5-25.8-84.5-18.7-61.7-35.6-116-36.9-118.3-1.1-1.9-2.1 110.9-2.1 226.2v96.9l7.1 18.6c3.9 10.2 11.1 29 16 41.8s8.9 23.4 8.9 23.6-5.3.7-11.7 1.1c-123.4 7.1-212.1 13.9-320.3 24.6-245.3 24.4-501.6 63.5-735.6 112-15.9 3.3-29.4 6-30.1 6-.8 0-.9-1-.1-3.7m71.3-33.3c22-4.3 56.8-11.1 77.4-14.9 20.6-3.9 37.5-7.2 37.7-7.4s-1.8-14.3-4.6-31.3l-5-30.9v-90.5h3.3c3.3 0 3.4.1 5.5 7.3 17.8 62.3 39.6 137.4 40.1 137.9.4.4 11-1.1 23.6-3.3 12.7-2.2 38.1-6.5 56.5-9.5s33.7-5.7 34-6 .3-60.9.2-134.7c-.4-159.9.8-223.7 5.3-287.2 3.5-47.9 9.7-85.7 16.5-99.7l2-4.1-15.8.6c-8.6.4-43.3 1.2-76.9 1.9-33.7.6-61.8 1.5-62.5 1.9-.9.6 0 8.6 4 33.6l5.2 32.8v83.5h-6.6l-14.3-50.2c-7.8-27.7-17.2-61.1-20.9-74.3l-6.8-24-10.9-.3c-12.2-.3-124.6 2.5-125.2 3.2-.2.2 4.4 16.3 10.2 35.7l10.7 35.2-1 212.1-.9 212.1-10.7 37.5c-5.9 20.6-10.9 38.3-11.2 39.3-.3.9-.2 1.7.3 1.7s18.8-3.6 40.8-8m2743.8-30.1c51.7-43.8 56.5-48.2 57.3-51.9.4-1.9.2-33.6-.5-70.5-3.3-184.4-2.3-273.1 3.5-338.5 2.8-31.3 7.2-57.1 12-69.9 1.3-3.5 2.3-6.5 2.2-6.6-.2-.1-22.3-.7-49.3-1.4-169.7-4.1-226.2-5.2-284.5-5.6-36-.3-82.4-.9-103-1.4-20.6-.4-37.7-.7-37.9-.5s4.7 14.6 10.8 32.1l11.1 31.8 1.1 165.3c.8 113.5.9 165.6.2 166.3-1.4 1.4-27.9-.6-43.2-3.2-24.5-4.2-53.6-13-89.1-26.9l-18-7.1v-103.4l5.1-28.8c2.8-15.8 5-29 4.7-29.2-.5-.5-73.5-4.8-124.3-7.3l-35-1.7-.3-41.9c-.1-30.1.1-42.3.9-43.2 1.4-1.7 29.3-1.9 45-.4 23.1 2.3 48.9 8.2 78.9 17.9 10.1 3.3 18.6 5.8 18.8 5.6.4-.3-21.4-70.7-35.3-114.2l-4.5-14.1-4.8-.6c-2.6-.3-36.6-.8-75.7-1.2l-71-.6-21.5 17.8c-11.9 9.9-29.4 24.2-38.9 31.9l-17.3 14 .6 126.5c.3 69.6.9 145.3 1.2 168.2l.7 41.6 15.1 13.9c8.3 7.6 25.7 23.7 38.6 35.9l23.6 22.1 12.9 1.2c7.2.6 33.4 3.2 58.4 5.7 25 2.4 46 4.3 46.7 4 1.3-.5 39.5-30.3 64.4-50.3l13.5-10.8-.4-26.2-.4-26.3h3.6c3.2 0 3.7.4 4.6 3.3 3 10.3 38.2 124.1 38.6 124.7.2.4 3.5 1 7.2 1.4 11.1 1.1 87.7 11.3 116.8 15.5l27 3.8 36.9-29.6c20.3-16.3 38-30.5 39.4-31.7l2.5-2.1-1.3-134.9c-1.9-186.3-.1-274.5 6.1-301.7l1.1-4.8 4.1.3c3.9.3 4.3.6 6.8 5.6 6.4 12.8 11.8 47.5 14.9 94.7 3.2 49.3 3.6 87.9 4 334.6v12.5l16.1 18c8.9 9.8 25.4 28.5 36.7 41.4s21.2 24.2 22.1 25.2c1.2 1.1 12.1 3.5 39.1 8.2 20.6 3.7 46.5 8.4 57.5 10.6 11 2.1 20.8 3.9 21.8 3.9 1 .1 10.9-7.6 22-17m-2421.8-26.3c16-2.5 49.9-7.4 75.4-11.1 25.6-3.6 46.6-6.7 46.9-6.9.2-.3-1.7-13.5-4.3-29.5-2.9-18.4-4.5-31.4-4.3-35.4l.3-6.2 9-1.2c5-.6 13.6-1.5 19.3-1.9l10.2-.7v5.4c-.1 3-2.7 19.4-5.8 36.4l-5.7 31 45.5-5.7c70.3-8.9 155.2-18.1 226.9-24.8 11.8-1.1 21.6-2.1 21.8-2.4.3-.2-2.1-13.8-5.1-30.3l-5.6-29.8.6-45.2.7-45.3h6.4l19.3 46.8c10.7 25.7 20.5 49.2 21.8 52.2l2.4 5.4 10.4-25.9c5.8-14.3 15.8-38.9 22.2-54.7l11.7-28.8h6.8l-.7 45.3-.6 45.2-5.8 29c-5.7 28.8-5.8 29-3.6 29.3 1.2.2 21.2-1.1 44.5-2.7 23.3-1.7 57.7-4 76.4-5.1 18.7-1.2 34.2-2.2 34.6-2.3.3-.1-4.6-13.5-10.8-29.8l-11.2-29.6.9-168.3 1-168.3 8.8-23.4 8.7-23.3 3.5.2c3.3.3 3.6.6 6.8 8.3 13.4 32.1 30.1 80.8 46.7 137 23.5 79.5 31.6 106.5 35.5 118l4 11.9v101.69999999999999l-11.6 30.5c-6.3 16.8-11.3 30.8-11 31.1s12.8.1 27.8-.6c37.2-1.5 83.8-3.1 116.4-3.9l27.1-.7-10.8-28.9-10.9-28.9V1395l6.4-20.2c3.5-11.1 11.2-36.4 17.1-56.2 30.7-103.6 44.7-145.6 63.7-190.5 3.9-9.1 7.9-18.2 8.9-20.3l1.9-3.7-75.2.2-75.3.3-.6 34c-.6 32.7-.8 34.5-3.5 46.5l-2.9 12.5-3.6.3-3.7.3-1.6-8.8c-2.6-14-3.5-26.9-4.2-56.8l-.7-28-132.6.7c-72.9.4-137.7 1-143.8 1.4l-11.3.6-24.1 73.1c-13.2 40.3-24.5 74.7-25.1 76.5-.9 3-1.3 3.3-4.6 3l-3.6-.3-25.1-75.8-25-75.9-58 .6c-31.9.4-63.9.9-71.1 1.2l-13.2.6 5 14.1c2.7 7.8 7.7 22.1 11 31.6l6.1 17.5-.6 125.5c-.9 167.5-3 226.5-9.3 254-1.7 7.9-3 9.4-7.5 8.9-3.8-.4-3.3 1.2-11.8-33.3-12-48.2-21-97.3-36.1-198-11.3-75.5-18.7-121-25-154.3-3.4-17.6-3.6-16.5 12.4-61.1l1.6-4.4-52.7.7c-82 1.2-127.2 2.2-127.8 2.8-.4.3 2.8 10.6 6.9 22.8 4.2 12.2 7.6 23.6 7.6 25.3 0 1.8-1.8 12.3-4 23.3-5.5 28.2-14.5 82.6-24 145.4-24.4 161.5-36.7 221.9-60.9 299.8-1 3.4-1.8 6.2-1.7 6.2s13.2-2 29.1-4.4m1592.5-117.8c0-31-.5-121.7-1-201.6l-1-145.3 11-29.6c6.1-16.3 11-29.9 11-30.3 0-1.2-29.7-1.9-96.6-2.3l-62.1-.4 5.7 28.6 5.7 28.6.6 34.8.6 34.7h-3.3c-3.3 0-3.5-.3-5.4-5.7-2-5.8-39.6-113.5-41.4-118.4l-.9-2.6-68.2-.6c-37.5-.3-68.3-.4-68.5-.2-.4.4 4.7 14 15.3 41l6.7 17 .7 51.5c1.1 92.1.7 238.6-.7 258.5-2.2 30.6-5.2 48.7-8.8 54.3-1.2 1.8-2.3 2.3-5.2 2l-3.6-.3-5.8-19c-15.8-51.8-26.6-102.3-45.8-213.5-11.2-65-17.2-97.4-23.1-124.9-2.1-10.1-3.9-19.7-3.9-21.4 0-1.6 3.6-12.4 8-23.9 4.4-11.6 8-21.2 8-21.4s-41-.4-91.1-.4h-91l.7 2.3c.4 1.2 4 10.7 8 21 4.1 10.4 7.4 20.2 7.4 21.8s-1.3 8.9-2.9 16.2c-6.9 31.4-12.6 61.9-24.1 130.2-16.6 98.6-26.7 147.5-40 193.5-4.3 14.7-16.7 51.8-19.8 59l-1.9 4.5 76.6-.3c42.1-.2 76.8-.6 77-.8s-1.9-12.9-4.7-28.1c-2.9-15.3-5.2-29.5-5.2-31.5v-3.8h40v3.3c0 1.7-2.5 15.9-5.6 31.5-3.2 15.5-5.5 28.5-5.2 28.8s24.1.9 52.9 1.4c76.4 1.4 142.5 3.5 221.1 7.2 14.2.6 26 .9 26.3.6.3-.2-2.2-13.9-5.5-30.3l-6-29.9v-66.6h6.5l4.7 13.8c15.6 46.4 39.1 114.8 39.6 115.3.4.4 16.9 1.6 36.7 2.8 19.8 1.3 43.4 2.8 52.5 3.5 9.1.8 18.4 1.4 20.8 1.5l4.2.1zm-648.5 34.5c13.7-34.3 26.7-77.4 36.9-122.7 9-39.6 13.7-64.5 26.6-141.1 8.6-50.8 14.5-83.5 20-109.5 2.3-10.7 4.3-20.8 4.6-22.5.4-2.2-1.5-8.4-7.6-24-4.5-11.5-8.5-21.4-9-21.9-1-1-5.2 7.9-15.5 32.4-18.5 44.1-29.9 78.2-63.4 190.5-6 20.4-13.5 44.8-16.6 54.4l-5.5 17.4v42.6l-.1 42.6 12.8 34.2c7 18.9 13.1 34.3 13.4 34.3.4 0 1.9-3 3.4-6.7m-674.5-408.2c-7.3-21-13.6-38.1-14-38.1-1 0-21 57.1-21 60s44.6 272.3 45.7 276c.4 1.4 1.2-56.5 1.6-128.7l.9-131.1zm1011.5 158.7-.7-129.2-14.7-37.9c-8.1-20.8-15.1-37.8-15.5-37.8-.5 0-5.8 12.7-11.7 28.3l-10.9 28.3 25.5 133.5c29.5 154.3 27.5 144 28.2 144 .3 0 .2-58.1-.2-129.2"/><path d="M378.103 1218c.6-35.8.6-36.1 3.4-44.5 2.8-8.7 5.3-11.1 5.3-5.1 0 1.8-.4 6.8-1 11.2-1.2 10.1-4 56.1-4 66.6 0 7.4-.1 7.9-2.2 7.9h-2.1zM2792.303 1549c-3.8-.6-5.6-1.5-7.6-3.9l-2.7-3.1-.7-109.7c-.8-120.7-.2-228.1 1.5-255.2 1-17.4 3.4-39.4 4.6-42.4.4-1 1.8-1.6 4-1.6 1.9 0 3.4.3 3.4.6s2 12.5 4.4 27.2l4.5 26.7 1.1 179.9c.7 133.8.7 180.2-.1 181.2-1.2 1.5-4.7 1.6-12.4.3M2203.003 1480.1c-1.9-.4-3.9-1.3-4.5-1.9-.9-.9-1.3-22.1-1.5-80.1l-.3-79h6.699999999999999l8.7 23.8 8.7 23.7v114.5l-7.2-.1c-4-.1-8.8-.5-10.6-.9M2322.803 1380.9c0-11.6 1.3-17.8 3.8-17.8 1.2 0 1.4 1.4.9 8.3-.4 4.5-.7 11-.7 14.5 0 5.5-.2 6.2-2 6.2-1.9 0-2-.7-2-11.2M2906.403 1257.9c-.3-1.3-.6-16.2-.6-33.1V1194l3.2-10.4c1.9-6.3 3.7-10.5 4.5-10.5 1.6 0 1.6-.4-.2 18.7-1.3 13.7-3.4 53.6-3.5 64.6 0 4.2-2.4 5.2-3.4 1.5M2597.403 1206.9c-1-3.8-.7-25.4.5-30.8.7-3.1 1.6-5 2.5-5 1.1 0 1.4 2.5 1.4 13.8 0 16.5-.8 24.2-2.5 24.2-.7 0-1.5-1-1.9-2.2M712.403 1563.3c-.3-.5-2.6-6.6-5.1-13.6-2.9-8.1-5.5-17.7-7.1-26.3-2.9-16.5-2.9-16.3-.4-16.3 1.3 0 2.2.9 2.6 2.8 2 9 6 24.3 9 34.9 3.4 12.1 4.3 19.3 2.5 19.3-.6 0-1.2-.4-1.5-.8M1081.503 1512.8c-2.6-7.1-2.7-8-2.7-28 0-19.7.1-20.7 1.9-20.7 1.7 0 2 1.1 2.6 12.8.3 7 1.3 18.5 2.1 25.5.8 7.1 1.4 14 1.4 15.3 0 4.7-2.6 2.3-5.3-4.9M580.803 1426.7c0-3.4.3-9.1.6-12.5l.7-6.1h7.4l.7 7.7c1.4 16.6 1.1 17.3-6 17.3h-3.4ZM655.403 1255.4c-.7-3.6-5.6-32.9-5.6-33.7 0-.3.8-.6 1.9-.6 1.5 0 2 1 2.5 5.3.4 2.8 1.3 8.4 2.1 12.2.8 3.9 1.7 9.8 2.1 13.3.6 5.2.4 6.2-.9 6.2-.9 0-1.8-1.2-2.1-2.7M648.403 1213.9c-1-3.8-.7-4.8 1.4-4.8 1.6 0 2 .7 2 3.5 0 4-2.4 4.9-3.4 1.3M646.403 1201.9c-1.2-4.8-.7-7.8 1.4-7.8 1.7 0 2 .7 2 5 0 3.6-.4 5-1.4 5-.7 0-1.6-1-2-2.2M1576.203 1379c.3-5.6.9-10.5 1.2-11s2-.9 3.8-.9h3.3l.7 6.1c.3 3.4.6 8.4.6 11v4.9h-10.3zM2019.803 1194.4v-28.6l2.8-7.3c3.6-9.8 5.7-10 4.9-.6-.4 3.7-1.1 11.2-1.6 16.7s-1.3 18.7-1.7 29.3c-.6 17.8-.8 19.2-2.5 19.2-1.8 0-1.9-1.4-1.9-28.7M525.803 780.8V519.5l22.8-1.2c141.8-7.7 322.2-42.9 493.9-96.3 12.2-3.8 22.4-6.9 22.7-6.9s.6 141.1.6 313.5v313.5h-540ZM1567.303 956.2c.3-.5 26.9-32.3 59.1-70.7 32.9-39.3 58.1-70.1 57.6-70.6s-49.9-.7-111.3-.6l-110.4.3-5.6 2.3c-7 2.8-16.6 11.3-20.2 17.9-8.1 15-6.7 33.2 3.4 44.7l4.1 4.6h-28.1l-2.5-5.6c-1.4-3.1-3.1-7.5-3.8-9.7-1.8-6.4-1.5-22.2.6-29.2 6.2-20.8 22.2-37 43.6-44.1 5.2-1.8 12.9-1.9 155.4-2.2l150-.3 5.9 5.8c8.3 8.1 11.7 13 11.7 16.8 0 2.7-2.3 5.9-13.1 18.9-11.6 13.9-12.9 15.9-11.7 17.4 2.1 2.8 83.9 100.5 86.1 103l2 2.2h-31.8l-36.5-43.5c-20.1-23.9-36.8-43.5-37.2-43.5s-4 4-8.1 8.8l-7.5 8.8 26 31c14.3 17 27.3 32.6 29 34.7l3 3.7h-31.700000000000003l-20.9-25c-11.5-13.8-21-25-21.2-25s-9.6 11.1-21 24.6c-11.3 13.5-21.2 24.8-21.8 25-.7.3-7.9.3-16 .2l-14.9-.3 59.2-70.5c32.5-38.7 59.1-70.8 59.1-71.2 0-.5-6.7-.8-14.9-.8h-14.9l-59.8 71.5-59.9 71.4-15.8.1c-9.5 0-15.6-.4-15.2-.9"/><path d="M1367.503 883.4c-.3-.5-1.3-4.4-2.3-8.8-2.6-11.3-2.4-32.1.4-42.7 8.3-30.9 27.9-54.7 56.7-68.8 13.4-6.6 23.9-9.6 38.3-11 13.8-1.3 252.3-1.3 255.8 0 1.5.6 7 5.2 12.1 10.3l9.4 9.2-139.8.5c-128.1.5-140.3.7-146.2 2.3-30.4 8.2-52.5 28.4-62.3 56.7-3.1 9-3.2 10.3-3.2 23.5 0 11.7.4 15.1 2.2 20.5 1.2 3.6 2.2 7.1 2.2 7.8 0 .9-2.9 1.2-11.4 1.2-6.3 0-11.7-.3-11.9-.7M1222.303 585c-21.9-44.6-27-55.8-27-59.1v-4.1l160-104.8c120.7-79.1 160.7-104.8 163-104.8 2.3-.1 38.8 23.4 163 104.7l160 104.7.3 4c.3 3.6-3.1 10.9-26.9 59.3l-27.3 55.2h-3.4c-2 0-7.6-1.9-13.3-4.7-9.8-4.5-9.9-4.6-9.9-8.1 0-2.6 5.8-15.3 21.1-46.6 11.7-23.7 21.6-43.6 22.1-44.2.6-.8-43.4-30.1-142.2-94.9l-143.1-93.6-9.2 5.9c-27.7 17.8-274.4 179.6-275.5 180.6-1 .9 3.2 10.1 20.3 44.8 16.7 33.9 21.5 44.5 21.5 47.5v3.8l-9.5 4.8c-6.4 3.1-10.8 4.7-13.3 4.7l-3.7-.1z"/></g><g fill="#062c75"><path d="M1487.303 3023c-17-8.8-76.9-39-133-67.1-165.2-82.7-231.9-117.6-312.5-163.6-291.1-166.1-471.6-335.4-572.6-537.2-55.1-110.1-84.6-222.6-93.6-357-1.6-24.2-1.6-100.9.1-126.5 1.5-23.5 3.7-50.5 4.2-51 .2-.1 16.6-3.1 36.4-6.4 19.8-3.4 37.5-6.5 39.4-6.8l3.3-.6-.6 3.9c-.3 2.2-1.3 12-2.1 21.9-3 38.1-3.8 61.7-3.2 108 .5 42.6 1.2 55.4 4.6 91.5.6 5.8 1.5 18.8 2.1 29 7.1 119 51.4 236.9 130.8 348.1 14.7 20.6 45.6 60.7 62.1 80.4 27.1 32.6 69.2 76.3 101.6 105.5 83.3 75.1 178.5 142.5 302 214 12.7 7.3 32.5 18.8 44 25.5 34.2 19.9 80.5 45.5 125 69.2 36.6 19.6 75 39.1 180.7 92l113 56.5 5.6-3.1c3.1-1.7 50.3-25.5 104.7-52.7 109.2-54.8 129.4-65 176-89.7 9.4-4.9 19.7-10.4 23-12.2s10.1-5.4 15-8c5-2.6 11.6-6.3 14.8-8.1 3.2-1.9 5.9-3.4 6.1-3.4.4 0 13.1-7.1 55.6-31 84.7-47.5 127.8-73.5 182.5-110 91.2-60.7 154.1-111.4 220.1-177.4 43.1-43.2 65.2-68.8 103.5-120.1 50.8-68.1 83.3-124.3 108.3-187.3 24.8-62.5 37.8-119.6 43.1-190.2.8-10.7 2.1-25.8 2.9-33.5 3.5-32.8 4.1-47.5 4.1-99 0-51-.6-64.6-4.1-102.4-.8-9-1.3-16.5-1.1-16.7.3-.3 51.9 8.3 71.2 11.8l7 1.3.7 6c1.8 16.9 4 54.6 4.7 81.1 3.9 149.1-21.2 283.4-76.5 408.9-7.1 16.1-24.9 51.8-34.4 69-101.6 183.3-271.7 340.4-534.4 493.9-84.6 49.4-153.5 85.8-328.6 173.5-66.8 33.5-132.5 66.6-145.9 73.5-13.5 6.9-24.5 12.6-24.5 12.5-.1 0-14-7.2-31.1-16"/><path d="m1636.003 2759.6-29.4-42.5h-90.1l-90.2.1-30 39c-16.5 21.5-30.6 39.7-31.2 40.6-1.2 1.5-1.6 1.5-4.9 0-1.9-1-3.4-2.2-3.2-2.7s13.6-18.1 29.8-39.1 30.1-39.1 30.8-40.3c1.1-1.8-2.1-12.4-27-89.1l-28.3-86.9-51.5-14.8c-28.3-8.1-52.6-15-54-15.3-2.3-.5-5.3 3.1-39.2 48.2l-36.7 48.8 17.4 55c9.6 30.2 17.3 55 17.2 55.2-.2.1-4.1-1.9-8.7-4.5l-8.4-4.7-15.2-46.3c-8.4-25.5-15.4-46.5-15.6-46.6-.1-.2-6.8-.6-14.8-1l-14.5-.6 8.5 4.9c4.7 2.7 9.5 5.7 10.7 6.7 1.8 1.6 33.8 77.2 33 78-.2.2-69.9-39.8-77.5-44.4-1.7-1.1-3.5-37.5-2.7-56.7 2.9-73.1 16.7-130.3 45-186 18.2-35.9 37.6-63.1 66-92.3 31.4-32.3 65.9-57.6 106.5-77.8 45.7-22.8 93.8-36.8 148.5-43.1 21.1-2.4 69.1-2.4 90 .1 85.8 10 157.2 39.9 219 91.5 11.5 9.6 33.8 32 43.6 43.6 53.7 63.9 86.6 144.3 97.3 237.7 2.6 22 1.6 76.3-1.5 81.8-.8 1.5-81.7 48.5-82.4 47.9-.3-.4 6.5-17.3 28.4-70.3l7.8-19 9.7-5.5 9.7-5.6-8.3-.3c-4.6-.1-10.9.1-14.1.5l-5.9.8-17.2 52-17.2 52-7.8 4.3c-4.2 2.4-7.9 4.2-8.1 4s8.4-27.1 19.1-59.8 19.3-60 19.2-60.7c-.2-.9-83.6-88.4-84.1-88.3-.1.1-23.4 6.9-51.7 15.3l-51.5 15.3-28.2 86.4c-15.5 47.6-28 87.1-27.8 87.8.3.7 13.5 20.1 29.5 43.2 15.9 23.1 29 42.2 29 42.4 0 .7-5.6 3.6-6.7 3.6-.4 0-14-19.2-30.1-42.5m-424.7-208.1c19.3-25.7 35.4-47.5 35.9-48.5.6-1.2-.2-25.4-1.9-63.5l-2.9-61.5-8-5.6c-4.3-3.1-8.6-5.6-9.5-5.7-.8-.1-5.5 5.3-10.7 12.1-43.9 58.2-71.9 134.1-75.1 204l-.6 14.2 5.4.4c3 .2 11.5.4 18.9.5l13.5.2zm681.3 38.6h5.2v-6.3c0-14-4.3-43.4-9.6-65.7-13.3-56.1-37.1-104.2-74.7-151.2-3.9-4.9-7.4-8.8-7.9-8.8-1.9 0-14.7 9.6-14.8 11 0 .8-2.7 30.9-6.1 66.9l-6 65.4 8.8 9.1c4.9 5 24.4 25.3 43.3 45l34.4 35.9 11.1-.7c6-.3 13.4-.6 16.3-.6m-439.1-87.4 61.2-36.7 59.3 36.7c32.6 20.2 60.3 37.4 61.6 38.2 1.2.8 2.2 1.2 2.2 1 0-.3-3.9-3.4-8.7-7-98-73-111.3-82.9-112.9-83.5-1.2-.4-19.3 12.2-114.9 80-24.3 17.3-27.8 19.2 52.2-28.7m269.7 11.9c25.3-7.4 46.2-13.8 46.5-14.1s3.3-29.7 6.6-65.2l6.1-64.7-6.6-4.7c-7.3-5.2-14.5-10.3-91.8-64.7l-54.2-38.1-54.1 21.4c-29.7 11.8-54.2 21.5-54.3 21.7-.2.2-.5 26.7-.7 58.8l-.4 58.5 73.9 53.7 73.9 53.7 4.6-1.3c2.5-.8 25.3-7.5 50.5-15m-284.3-37.8 72.7-52.8.4-58.2c.3-32 .3-58.4.2-58.6-.5-.6-109.4-35.1-111-35.1-1.3 0-144.6 102.1-148.6 105.9-1.6 1.5-1.6 4.9 1.1 61.6 2.3 47.7 3.1 60 4.2 60.4 7.5 2.8 104 29.9 105.9 29.7 1.5-.1 31.5-21.2 75.1-52.9m-109.8-170.7 58.9-40.4-.6-3.6c-.3-1.9-1.1-5.2-1.7-7.3l-1-3.8-4.2 3.4c-2.3 1.8-30.5 24.6-62.7 50.6-32.2 26.1-59.6 48.5-61 49.9-2.9 2.9-3.5 3.3 72.3-48.8m447.7 44.6c0-.5-128.8-105-129.9-105.4-.5-.1-1.6 2.7-2.5 6.4-1.4 5.5-1.5 7-.4 8 1.2 1.1 132 91.3 132.6 91.4.1 0 .2-.2.2-.4m-204-74 56.5-22.4 1.2-3.8c2.1-7.1 2.3-6.9-9.9-10.3-68.5-19.2-148.1-17.9-215.7 3.4l-7.9 2.5 2.4 8.2c1.3 4.4 2.6 8.3 2.9 8.6.5.5 111.5 36 113 36.1.6 0 26.4-10 57.5-22.3M83.203 1699.6c.4-1.5 5.9-21 12.3-43.4l11.6-40.6.9-209.1 1-209.1-11.6-38.3c-6.3-21.1-11.4-38.5-11.3-38.7.2-.1 26.6-.9 58.8-1.8 32.1-.8 64.1-1.6 71.1-1.8 8.8-.3 13-.1 13.6.7.5.6 9.4 31 19.7 67.6s19.7 69.9 20.9 74l2.1 7.5.3-39 .2-39-5.6-35.7c-3.2-19.7-5.4-36.1-5-36.5.4-.5 24.2-1.3 52.9-1.9 28.7-.7 66.1-1.5 83-1.9l30.8-.7-2.9 4.4c-6.9 10.3-12 31.7-16.1 66.9-7.3 62.4-9.4 138.9-8.9 325.6.1 73.8.1 134.4-.2 134.7s-15.6 3-34 6-45.2 7.5-59.4 10c-14.3 2.5-26.1 4.4-26.3 4.2s-9-30-19.4-66.2c-10.5-36.3-20.1-69.3-21.4-73.4l-2.3-7.5-.1 42.5-.1 42.5 5.5 33.9c3 18.7 5.4 34.1 5.2 34.2-.1.1-16.2 3.2-35.7 6.9-33.9 6.3-121.3 23.5-127.4 25.1-2.8.7-2.9.6-2.2-2.1m73.6-37.3c19.5-3.9 41.2-8 48.3-9.3 7-1.3 13.2-2.6 13.8-2.9.6-.5.6-1.5-.1-3.4-1.7-4.7-3.9-24.3-5.1-47.1-1.7-33.8-1.6-254.5.2-254.5.3 0 9.3 30.5 19.9 67.8 19.2 67.6 58.3 203.6 62.2 216.5l2 6.9 3.7-.7c2-.4 19-3.3 37.9-6.5s34.6-6.1 35-6.5 1.2-80.8 1.9-178.8c1-154.8 1.8-205.1 3.8-236.2 2.3-34.1 3.1-39.3 8.3-55.2 2.5-7.8 4.4-14.4 4.2-14.6-.5-.4-102.2 1.4-102.7 1.8-.2.1.2 1.7.7 3.6 1.8 6.1 3.9 27.8 5 50.9 1.8 40.2.9 245.4-1.1 241.8-.7-1.2-57.9-201.3-76-265.6l-8.2-29.4-5.6.6c-3.1.3-20.7.8-39.1 1.1s-36.7.8-40.6 1.1l-7.1.6 7.5 24.7 7.4 24.6-.5 169c-.5 159-.9 187.6-3.7 234-2.2 36.6-5.7 61.3-9.9 69.7l-1.9 4 2.1-.6c1.2-.2 18.2-3.6 37.7-7.4M2828.803 1675.5c-12.4-2.4-39.4-7.3-60-11-27-4.7-37.9-7.1-39.1-8.2-.9-1-10.8-12.3-22.1-25.2s-27.8-31.6-36.7-41.4l-16.1-18v-12.5c-.1-6.9-.2-70.9-.4-142.1-.3-122.9-.7-147.7-3.6-192.5-2.2-34.4-5.8-62.8-10.2-80.7-2.2-9-6.4-18.9-8.4-19.5-.7-.2-1.6 1.6-2.3 4.4-6 26.4-8 114.2-6.3 280.3.7 65.2 1.2 127.1 1.2 137.6v19.1l-22.2 18c-12.3 9.9-30.2 24.2-39.8 31.8l-17.4 13.9-37.1-5.2c-42.5-6-112.7-15.2-116.1-15.2-1.2 0-2.5-.4-2.8-.9s-7.8-24.4-16.6-53.2c-18-58.7-22.9-74.2-23.7-74.9-.3-.3-.4 11.4-.2 26l.4 26.5-13.3 10.7c-11.2 9-50.6 40-62.2 48.9l-3.5 2.7-32-3.3c-17.6-1.8-45.3-4.5-61.5-6.1l-29.5-2.7-23.5-22.1c-13-12.2-30.3-28.3-38.6-35.9l-15.1-13.8-.7-40.7c-.3-22.4-.9-99.4-1.2-171.2l-.6-130.5 17.3-14c9.5-7.7 27-22 38.9-31.9l21.5-17.8 74.5.6c41 .4 76.4.9 78.7 1.3l4.3.5 5.9 18.7c14.4 44.8 37.2 118.4 36.9 118.7-.2.1-10.6-3-23.1-7.1-45.2-14.8-75.1-20.5-107.7-20.5-10.4 0-14 .3-14.9 1.4-.8.9-1 12.3-.9 40.2l.3 38.9 34.5 1.7c51.2 2.5 125.4 6.8 125.9 7.3.2.3-2.1 14.8-5.2 32.2l-5.7 31.8v97.4l18 7.1c36.3 14.2 68.1 23.7 92 27.4 13.7 2.2 33.3 3.6 34.4 2.5.5-.4.4-68.2-.3-163.1l-1.2-162.3-12.1-34.8c-6.6-19.1-11.9-34.9-11.7-35.2.3-.2 20.2 0 44.4.6 24.2.5 72.4 1.2 107 1.4 34.7.2 101.3 1.3 148 2.4 46.8 1.1 107.5 2.6 135 3.2 27.5.7 50.4 1.5 50.8 1.9.5.4.2 1.8-.7 3.1-6.5 10-12.5 39.5-16 78.9-5.9 65.6-6.7 144.9-3.5 334.5.7 39.1.9 72.6.5 74.5-.6 3-3.5 5.9-19.3 19.5-40.9 35.2-59.5 50.5-61.1 50.4-.9-.1-11.8-2.1-24.2-4.5m34.7-35.6c9.2-7.8 23.1-19.6 30.7-26.2l13.9-12.1-.7-63.5c-1.1-110.2-.9-283.5.3-310 1.9-40.4 3.3-51.2 8.6-69.4 2.6-8.6 4.5-15.9 4.4-16-.4-.4-84.7-2.6-96.6-2.6h-7.1l1.3 4.3c5.3 17.6 7.4 86.1 8.2 268.9l.6 138.7-4.2 6.5c-3.6 5.5-5.2 6.9-11.2 10.1l-7.1 3.7-11.6-1.7c-6.4-1-12.8-2.4-14.2-3.3-6.1-3.8-11.3-9.1-15-15.2l-3.9-6.6-1.2-130c-1.7-175-.1-251.7 5.6-274.5l.6-2.6-41.8-.7c-23-.3-46.1-.9-51.5-1.2l-9.6-.6 2.4 4.9c5.8 11.6 9.4 41.1 12.5 102.3.7 12.6 1.3 82.8 1.6 170.3l.5 148.8 25 28.1c13.7 15.5 28.1 31.8 32 36.4 6.6 7.7 7.5 8.4 12.2 9.3 2.8.6 16.8 3.1 31.1 5.6 14.3 2.6 35 6.3 46 8.4 11 2.2 20.3 3.9 20.7 4 .4 0 8.3-6.3 17.5-14.1m-290.9-64.2 27.4-21.9-.7-25.6c-.4-14.1-.8-100.1-.8-191.1l-.2-165.5 2.2-13.5c1.2-7.4 2.5-15.4 2.9-17.6l.6-4.2-45.8-.6c-25.3-.3-48.2-.8-51-1.1l-5.1-.5 2.4 4.8c4.5 9.2 8.1 32 10.3 66.2 2.3 37 3 79 3 190.8v117.3l-4.1 5.9c-3.8 5.5-4.8 6.2-11.8 8.9l-7.6 2.8-17.5-1.8c-38.5-4.1-62.7-9-82-16.8-5.7-2.3-10.5-4-10.7-3.8s5 17.7 11.5 38.8c11.7 38 11.8 38.4 14.7 39.1 1.7.4 17.4 2.6 35 4.8 17.6 2.3 45.5 6 62 8.4l30 4.2 4-3c2.2-1.7 16.3-12.9 31.3-25m-279.3-30.4 30-23.7-.3-61c-.4-69.2.5-92.6 4.5-115.2 1.5-8.4 2.4-15.5 2.2-15.8-.7-.6-102.9-6.5-102.9-5.9 0 .1 3.3 9.3 7.4 20.5l7.3 20.4.6 60.1.7 60.1-4.7 6.2c-3.8 5.2-5.7 6.7-11.2 9.2l-6.6 3-12.2-1c-11.3-1-12.6-1.3-18.3-4.8-4.8-2.8-7.2-5.2-10.6-10.2l-4.3-6.6-1-134-.9-134 3.6-5.6c2.7-4.3 5.3-6.7 10.3-9.8l6.6-4.1h18.4c39 0 72 4.7 91.3 13l4.6 1.9-.5-2.2c-.3-1.2-5.7-18.4-11.9-38.2l-11.4-36-19.8-.6c-11-.4-40.2-.9-65.1-1.2l-45.2-.6-18.8 15.6c-10.3 8.6-24.4 20.1-31.2 25.6l-12.3 10.1.6 69c.3 38 .9 109.9 1.2 159.8l.6 90.7 24.6 22.8c13.5 12.5 27.8 25.8 31.8 29.6l7.3 6.7 36.8 3.6c20.2 1.9 42.2 4.1 48.8 4.8 21.3 2.4 15.9 4.8 50-22.2m508.4-177.7-1-177-4.5-26.7c-2.4-14.7-4.4-27-4.4-27.5 0-.4-.5-.1-1 .8-1.5 2.6-3.8 22.7-5.2 45.4-1.2 20.8-1.7 170.2-1 302.1l.3 54.1 2.7 3.2c2.1 2.5 3.8 3.4 7.7 4 3.3.5 5.4.4 6.2-.3 1-.9 1.1-37.3.2-178.1m-583.9 56.2v-54.4l-7.9-21.4c-4.4-11.8-8.4-22.5-9-23.9-.8-1.8-1 18.9-.8 73.7.1 56.1.5 76.5 1.4 77.4 1.4 1.4 6.6 2.7 12.1 2.8l4.2.1zM417.303 1639.4c2.2-5.8 14.3-47.5 18.5-63.7 16.5-63.8 25.7-113.3 46-247.6 9.5-62.6 18.5-116.9 24-145.5l4-20.3-8.6-25.2c-4.7-13.8-8.3-25.4-8-25.7s20.9-1 45.8-1.5c71-1.3 144.3-2.5 144.6-2.3.1.1-3.9 11.9-8.9 26.1l-9.2 25.9 1.1 6.5c.6 3.6 3.1 18 5.6 32 6 33.8 10.8 64.4 20.6 129.5 16.6 110.5 27 165.7 41 217.5 4.1 15.2 3.7 14.5 5.4 13 3.3-2.6 6.6-26.4 8.6-60 2.3-40.8 3.1-81.8 3.7-199l.6-122.6-6.1-17.4c-3.3-9.6-8.7-25.2-12-34.6l-6-17.2 14.1-.6c7.8-.3 41.7-.8 75.2-1.2l61-.6 25 75.7c13.7 41.6 25.3 75.9 25.7 76.1.3.2 1.1-1 1.7-2.8.5-1.8 11.8-36.2 25-76.5l24.1-73.1 11.3-.6c10.5-.5 131.6-1.4 236-1.7l46.8-.2.4 27.4c.2 15.1.9 32.1 1.4 37.9 1.4 13.8 4.1 28.4 5.1 27.3.4-.4 2.1-6.6 3.6-13.8 2.8-12.5 2.9-14.4 3.4-46l.5-33 79.3-.3c54-.1 79.2.1 79.2.8 0 .6-1.3 3.6-2.9 6.8-1.6 3.1-6 13.1-9.9 22.2-18.9 44.9-33 86.8-63.7 190.5-5.9 19.8-13.6 45.1-17.1 56.2l-6.4 20.2.1 47.8v47.8l11.8 31c6.5 17.1 11.7 31.3 11.5 31.6s-14.4.9-31.6 1.3c-33.5.7-103.1 3.1-131.8 4.5-9.6.5-17.8.6-18.1.3-.3-.4 5.2-15.8 12.2-34.2l12.8-33.5.1-48v-48.1l-4-11.9c-3.9-11.5-12-38.5-35.5-118-16.3-55-32-101.2-46-135.5-1.5-3.6-3.2-7.4-3.7-8.4-.8-1.5-2.7 2.4-9.9 21.5l-8.9 23.4-.9 165.4-1 165.4 12.4 32.6c10.2 27 12.1 32.6 10.7 32.8-.9.2-20.6 1.4-43.7 2.8s-60 3.9-81.9 5.5c-22 1.7-40.1 2.8-40.3 2.7-.1-.2 2.7-15.1 6.3-33.3l6.5-32.9.5-42c.5-39.2.4-41.8-1.1-38.5-1.9 4.2-18.8 45.5-34.6 84.8-8.5 21.2-11.6 27.9-12.4 26.9-.5-.8-11.1-25.9-23.5-55.8l-22.5-54.4-.7 42.5-.8 42.5 6.1 32.8c3.4 18 6 33 5.7 33.2-.2.3-10.3 1.4-22.4 2.5-72.9 6.8-156.3 15.9-229.3 25-26.3 3.3-48.3 6-48.9 6-1.8 0-1.6-2 4.8-36.7 3.3-17.9 6-33.4 6-34.5 0-2.2-1.2-2.2-23.1.5l-9.4 1.2-.3 3.2c-.2 1.7 2 17.6 4.8 35.3s5 32.3 4.8 32.5-19.9 3.1-43.8 6.5c-23.9 3.3-59.6 8.5-79.3 11.5s-36.3 5.5-36.9 5.5-.7-.8-.3-1.7m57.6-31.8c9.2-1.4 29.4-4.3 44.9-6.5 15.6-2.2 28.5-4.2 28.7-4.4s-1.2-10.4-3.2-22.7c-3.4-21.1-3.6-22.9-2.5-31.9.6-5.2 1.4-9.7 1.9-10 .4-.3 3.8-2.5 7.5-4.9l6.6-4.3 20.3-2.4c27.5-3.2 27.2-3.2 36.5.5 7.7 3.1 8.1 3.4 8.6 6.9 1.9 12.9 1.7 16.6-2.3 38.1-2.2 11.8-3.9 21.6-3.8 21.7s6.7-.7 14.7-1.7c8-1.1 30-3.7 49-6 19-2.2 34.6-4.2 34.8-4.4.2-.1-.4-2-1.3-4.1-.9-2.2-2.7-7.9-4.1-12.9-3.9-14.3-12.6-47.6-13.5-52-2.4-11.1-35.3-206.8-41.4-246-1.2-8.2-3.7-23.3-5.5-33.5-1.7-10.2-3.5-21.4-4-25s-1.9-11.4-3-17.5c-1.1-6-2.6-14.6-3.2-19.1l-1.1-8 4.1-11.8c2.3-6.5 4.2-12.1 4.2-12.3 0-.7-105.1.5-114.6 1.3l-7.2.6 3.9 11.2c2.1 6.1 3.9 12.8 3.9 14.9s-1.8 13.3-4 24.8c-5.8 30.4-13.6 77.6-25 151.9-15.7 102.1-23.2 145.3-34.1 195.5-3.9 18.3-15.1 63.7-18.5 75.3-.6 2.2-.5 2.3 2.7 1.8 1.9-.4 10.9-1.7 20-3.1m334.5-41.5c55.7-5.5 51.6-4.9 51-6.6-1.4-3.6-3.7-19.2-4.6-31.9-.6-7.7-1.3-30.4-1.7-50.5-.7-41.1.6-168 1.6-168 .4 0 7.2 15.9 15.1 35.3 28.3 69.6 54.2 132.2 54.9 133 .4.4 2-2.5 3.6-6.5 1.5-4 14.1-34.7 27.8-68.3 13.7-33.5 28.6-69.9 33-80.7 4.4-10.9 8.4-19.8 8.9-19.8 1.9 0 0 175.6-2.2 206.5-1.1 16-3.7 35.5-5.1 39.2-.5 1.5-.5 2.3.2 2.3.5 0 10.1-.7 21.2-1.5s33.4-2.4 49.5-3.4 29.5-2.1 29.8-2.3c.2-.3-1.6-5.7-4-12.1-3.9-10-4.7-13.4-6-25.4-3.7-35-3.9-45.5-3.1-181.6.5-72.7.9-138.3 1-145.7l.1-13.5 7.1-18.5c4-10.2 7-18.6 6.8-18.8s-22.1 0-48.8.4l-48.4.7-8.5 26.1c-30.4 93.4-59.3 180.6-59.8 180.6-.4 0-16-46-34.8-102.2l-34.2-102.3-26.8-.3c-14.7-.2-36.7 0-48.9.3l-22.2.7 5 14.2c10.2 28.8 9.2 8.1 8.6 164.5-.3 76.4-1 147.2-1.6 159.1-2.9 58.6-6.2 86.4-11.6 97.4l-2.3 4.8 4.2-.5c2.4-.4 22.7-2.4 45.2-4.7m451.9-31c16-.5 39-1.3 51.3-1.6 19.9-.6 22.2-.9 21.7-2.3-.4-.9-3.6-9.3-7.1-18.8l-6.5-17.1.4-50.9.3-50.8 6.7-20.5c3.8-11.3 12.4-39.6 19.3-63 17.4-58.9 20.5-69.4 28.6-94.5 9.7-30.5 21.7-63.3 31.2-85.7l1.6-3.8h-96v10.4c0 22.1-6.6 60.7-24.5 142.5-7 32.2-8 36.1-8.8 35-.2-.2-7.2-33.7-15.6-74.4l-15.1-74v-39.5h-19.8c-10.9 0-32.7.3-48.4.7l-28.4.6 6.1 16.1c15.9 41.4 23.2 64.3 56.9 178.1 6.3 21.5 14.3 47.6 17.6 58l6.1 19-.7 50.5-.6 50.5-6.9 18.3c-3.8 10.1-6.9 18.4-6.9 18.6s1.9.2 4.3 0c2.3-.2 17.3-.8 33.2-1.4"/><path d="M563.603 1451c-4.3-2.1-7.8-4.5-7.8-5.3 0-8.5 28.2-210.1 29.6-211.5.2-.2.6-.2.8 0 1.4 1.4 22.5 158.5 27.2 202.4l.6 6-7.4 5.2c-7.3 5.1-7.5 5.1-18.3 6.2-15.3 1.5-16.1 1.5-24.7-3m23-21.8c1-.6 1.2-2.8.6-9.4-.4-4.8-1-8.7-1.4-8.7-.7 0-2 9.8-2 15.6 0 3.5.5 4 2.8 2.5M2022.803 1572.9c-12.9-.9-39.7-2.6-59.5-3.9-19.8-1.2-36.3-2.4-36.7-2.8-.3-.3-8.4-23.3-17.8-51.1-9.5-27.8-19.4-56.8-22-64.5l-4.8-14-.1 30.5-.1 30.5 6.6 33.3c3.7 18.3 6.5 33.4 6.3 33.7-.3.2-12.8-.3-27.9-1-67.4-3.4-147.8-6.1-226.9-7.5-29.3-.5-53.6-1.2-53.9-1.5-.5-.5 9.5-53.5 11.6-61.7.4-1.7-.9-1.8-16.7-1.8h-17.2l.6 4.3c.4 2.3 3 16.6 5.9 31.7 5.1 26.8 5.1 27.5 3.1 27.7-1.1.1-37.8.4-81.7.5l-79.6.3 2.5-6.5c5.1-13.1 16.6-46.9 20.8-61.5 13.5-46.1 23.7-95.1 40.5-195 11.5-68.3 17.2-98.8 24.1-130.2l2.9-13.2-8.6-21.8c-4.7-12-9-22.8-9.4-24l-1-2.3h96.5c53.1 0 96.5.4 96.5.9 0 .4-4.1 11.4-9 24.3l-9 23.5 3.9 18.4c5.9 27.5 11.9 59.9 23.1 124.9 15.3 88.8 22.4 124.3 33.2 167.5 6.2 24.9 17.4 63.4 18.8 64.9.4.4 1.5-.2 2.4-1.5 3.6-5.7 6.6-23.7 8.8-54.4 1.4-20.2 1.8-163.7.6-252.5l-.7-51.5-6.4-16.5c-12.5-32-17.7-45.8-17.7-46.9 0-.8 19.2-.9 72.3-.5 39.7.4 72.3.8 72.5.9.2.2 10.2 28.5 22.3 63.1 12 34.5 22.1 62.9 22.3 63.1s.2-13.9-.1-31.4l-.5-31.8-6.3-31.5c-3.5-17.3-6.2-31.6-6.1-31.7.3-.4 167.6 1.4 168 1.8.2.2-5.2 15.3-12 33.5l-12.3 33.2 1 162.8c.5 89.6.9 180.5.7 201.9l-.3 39zm-1.3-80c-.4-30.4-1-101.9-1.3-158.8-.5-87.2-.3-108.3 1-134 2.1-40.1 2.8-45.5 8.1-59.8l4.3-11.7-27.2-.6c-14.9-.4-38.1-.7-51.5-.8-22.8-.1-24.3 0-23.6 1.7 2.9 7.4 4.9 26.1 6.6 62.2 1.1 25.4 1.9 185 .8 185-.3 0-5.9-15.4-12.4-34.2-30-86.9-74.4-214-75-214.6-.4-.4-21.1-.8-46.1-1l-45.5-.3 2.1 2.9c4.1 5.6 7.8 24.7 10 52.2 2.9 37 3.4 65.3 3.2 189.3l-.2 126.8-7 18.3c-3.9 10.1-7 18.5-7 18.8s10.7.8 23.8 1.2c13 .4 36.1 1.3 51.2 2 15.1.8 27.6 1.3 27.7 1.2.1 0-.5-2.4-1.2-5.3-1.6-6.2-3.1-18.8-4.6-38.3-1.4-18.8-2.4-206.9-1.1-205.5.8.9 31.6 90.1 72.6 210.3 7.9 23.3 14.6 42.5 14.8 42.8.3.2 14.4 1.3 31.4 2.4s32.3 2.1 33.9 2.3c1.7.2 5.2.5 7.9.5l4.9.2zm-308.7 39.6c0-.3-2.3-7.9-5-17-16.7-55.1-27.9-106.6-46.5-214.9-13.3-77-16.8-96.1-27.6-148-1-4.7-.8-5.7 2.9-15.5l4-10.5-60.1-.6c-33.1-.3-60.4-.5-60.6-.3s1.5 5 3.8 10.6l4.1 10.4-3.9 18.4c-5.3 24.4-11.6 58.2-19.6 105.1-17.2 100.6-23.3 132.6-32.4 172.2-7 30-17.2 67.4-22.6 82.6-.8 2.4-1.5 4.7-1.5 5.2 0 .7 95.9.1 96.8-.6.1-.1-1.4-8.7-3.3-19.1-3.2-17.3-3.4-19.5-2.5-26.8.5-4.4 1-8.4 1-8.9 0-.4 3.7-2.6 8.3-4.8l8.2-4 24 .4 24 .3 7.6 3.7 7.5 3.6 1.1 9.3c1 8.8.9 10.2-2.3 26.3-1.8 9.4-3.4 18-3.4 19.3 0 2.2.2 2.2 12.3 2.3 6.7.1 24.4.5 39.2.8 41.3 1.1 46.5 1.1 46.5.5"/><path d="M1559.103 1405.9c-6.8-3.7-7.3-4.2-7.3-7.4 0-9.5 9.3-69.8 18.5-119.4 9.1-49.4 9.8-53 10.7-53 .4 0 .8.4.8.9 0 1 26.8 168.7 27.5 172.1.5 2.4-.1 3-7.3 6.8l-7.9 4.2-13.9-.1-13.9-.1zm23.6-23c-.1-5.9-1.4-13.3-2-12.3-.4.6-1 4.3-1.4 8.3-.7 6.9-.6 7.2 1.4 7.2 1.7 0 2.1-.6 2-3.2M379.803 710.6V379.1h29.8c114.5 0 250.8-15.5 380.2-43.1 208.8-44.6 421.4-121.2 608.5-219.2 14.2-7.4 16-8.4 41-22.2 18.6-10.3 44.4-25.6 63.6-37.7l15.7-9.8 12.3 7.8c60.8 38.6 146.1 83.5 230.4 121.4 235.8 106 490 174.9 722.5 195.7 51.3 4.6 80.9 6.2 131.5 7l42 .6v662l-39.2.3-39.3.2V455.3l-7.2-.6c-4-.3-13.4-.8-20.8-1.1-77.6-3.3-176-14.2-259-28.6-152.3-26.4-303.2-69.8-456-130.9-98.8-39.5-201.1-89.2-299-145.3-16.7-9.6-18.7-10.5-20.5-9.3-5.4 3.6-44.9 26.3-60 34.6-147.2 80.6-317.1 150.2-484.5 198.5-158 45.6-321.8 73.7-469.5 80.5-12.6.6-27.6 1.3-33.2 1.6l-10.3.6-.2 293.1-.3 293.2-39.2.3-39.3.2z"/></g><g fill="#003894"><path d="M1971.203 2627.5c.3-.9.6-224.3.6-496.5v-494.9h4.4c5.4 0 71.2 5.1 109.6 8.5 128 11.4 265.6 27.7 387.9 46 20 3 36.6 5.7 36.8 5.9.8.8 3.2 37 4.4 66.1 4.2 104.4-6.4 206.3-31.1 299-43.7 163.5-140.1 304.8-289 424-51.3 41-75 56.9-161 107.7-64.6 38.2-64 37.9-62.6 34.2M1971.803 728.5c0-298.2.1-313.6 1.8-313.1.9.2 12.1 3.7 24.7 7.6 42.6 13.4 95.6 28.1 138.5 38.5 133.5 32.5 248.3 51.1 351.8 56.8l22.2 1.2v522.6h-539ZM1257.203 954.3c-2.1-1.6-7-6.3-10.7-10.5l-6.8-7.6 123.8-.3 123.8-.3 7.3-2.3c29.2-9 49.5-28.2 58.8-55.6 5.2-15.1 5.3-31.9.3-46.3-1-3.1-1.9-5.8-1.9-6 0-.1 5.4-.3 12-.3h11.9l1 3.8c5.6 21 3.5 45.6-5.4 65.8-6.8 15.3-22.7 34-37.3 43.7-9.9 6.6-22.4 12.3-34 15.5l-9.7 2.7-114.6.3-114.5.3z"/><path d="M1208.503 905.9c-5.3-5.1-10.1-10.6-10.6-12.1-.8-1.9-1.1-25.8-1.1-72.8v-69.9h23v143h22v-143h23v143l108.8-.2 108.7-.3 6.6-3.2c8.2-4.1 15-11.1 19.2-20.1 2.9-6.1 3.2-7.5 3.2-16.7 0-8.7-.3-10.7-2.6-15.5-1.4-3.1-4.1-7.3-5.9-9.3l-3.2-3.7h27.9l2.6 5.8c3.5 7.8 4.6 13.3 4.7 22.7 0 15.5-5.8 29.8-17.1 41.8-7.3 7.9-14.3 12.5-24.7 16.6l-6.7 2.6-134.2.3-134.1.2zM1237.803 650.8c-3.2-6.7-19.1-39.2-35.4-72.1-16.3-33-29.5-60.1-29.3-60.2 3.9-3.4 343.8-224.8 345.2-224.8 1.5-.1 340.7 220.7 344.8 224.4.9.8-4.4 11.8-42.7 89.4-14.6 29.6-26.6 54.3-26.6 54.7 0 .5-.2.9-.4.9-.1 0-12.7-6.1-27.9-13.4l-27.6-13.5 12.1-24.8c6.7-13.6 17.3-35.1 23.5-47.7 9.4-18.8 11.2-23.1 10.1-24.2-.7-.7-21.1-14.2-45.3-30s-53-34.6-64-41.8-25.5-16.7-32.2-21.1c-6.8-4.4-24.8-16.2-40-26.2-87-57-83-54.5-85.6-53.1-1.4.7-61.4 39.9-133.5 87.1l-131 85.8 23.4 47.6c12.9 26.1 23.4 47.7 23.4 47.9 0 .5-37.8 19.4-47.8 24l-7.4 3.4zm25.5-18.4c5.2-2.6 9.5-5.1 9.5-5.6 0-.4-10.2-21.5-22.6-46.8-13-26.4-22.3-46.4-21.8-46.9.8-.7 248.7-163.2 279.6-183.2l10.7-6.9 145.3 95.1c79.9 52.4 145.2 95.7 145 96.3-.2.7-6.9 14.5-14.9 30.7-17.6 35.8-30.3 61.8-30.3 62.3 0 .6 20.1 9.9 20.5 9.5.2-.2 12.6-25.1 27.5-55.3 17.8-36 26.9-55.5 26.3-56.3-1.5-2.5-319.7-210.1-320.8-209.3-.5.4-72.1 47.3-159 104.1s-158.6 103.8-159.3 104.5c-1 .9 4 11.9 26 56.8 15 30.6 27.6 55.6 28 55.7.4 0 5.1-2.1 10.3-4.7"/><path d="M1473.803 641.1c-5.8-1.3-11.8-5.5-14.2-10.2-3.4-6.6-3.9-15.1-3.6-61 .3-42.7.4-44.5 2.4-48.8 4.3-9.1 11.5-13 23.9-13s19.6 3.9 23.9 13c2 4.3 2.1 6.1 2.4 49.4.2 27.3-.1 47.4-.7 51.5-1.9 12.3-9.2 18.6-22.6 19.5-3.8.3-9 .1-11.5-.4m15.1-17.9 2.4-1.9.3-45.5.3-45.5-2.3-2.7c-3.4-3.9-9.5-4.5-13.4-1.2l-2.9 2.5v92.4l2.4 1.9c3.1 2.5 10.1 2.5 13.2 0M1616.003 640.2c-6.7-2.3-12.6-8-14.7-13.9-1-3.1-1.5-8.3-1.5-15.9v-11.3h16.8l.4 11.1c.3 10.2.5 11.2 2.7 13 3.1 2.5 10.1 2.5 13.2 0 2.3-1.8 2.4-2.5 2.7-17.4.4-20-.2-21.7-8.3-21.7h-5.5v-17h5.5c7.9 0 8.5-1.5 8.5-21.4 0-14.9-.1-15.6-2.4-18.3-2-2.3-3.2-2.8-7.1-2.8s-5.1.5-7.1 2.8c-2.2 2.6-2.4 3.7-2.4 13.3v10.4h-17v-11.2c0-6.2.5-13.1 1.1-15.3 2.6-9.6 10.8-15.5 22.5-16.3 12.6-.8 22 3.5 26.6 12 2.2 4 2.3 5.4 2.3 23.3 0 18.4-.1 19.2-2.5 23.9-1.6 3-3.8 5.5-5.8 6.6-3 1.6-3.1 1.9-1.3 2.5 4.2 1.3 7.8 7 9.1 14.2 1.7 9.7.9 33.8-1.2 37.9-5.9 11-21.2 16.1-34.6 11.5M1384.403 637c-1.1-5.5-.6-22.2.8-29 2-9.3 4.7-14 11.2-19.6 13.2-11.2 17.3-15.6 20.8-22.3 3.6-6.8 3.6-6.8 3.6-19.7 0-14.7-1-18.7-5.1-20.8-3.6-1.9-6.2-1.9-10 0-4 2.1-4.9 5-4.9 16.1v9.4h-16v-13c0-14.3.8-17.6 5.6-22.4 10.2-10.2 31-10.2 40.6 0 5.1 5.5 5.8 8.7 5.8 28.3 0 30.3-2.3 35.7-21 49.9-10.8 8.1-15 15.1-15 25v4.2h36v17h-51.7zM1527.303 630.9c-.7-10.2.7-25 3-30.5 2.4-5.7 5.3-9 13.4-15.5 9.2-7.5 12.8-11.4 17-18.9 3.1-5.5 3.1-5.7 3.1-20 0-12.5-.3-14.8-2-17.6-3.2-5.3-13.2-5.5-16-.2-.6 1-1 6.5-1 12.3v10.6h-17v-12.7c0-14.6 1.3-18.7 7.2-23.9 5.6-4.9 11.4-6.7 20.5-6.2 8.6.4 13.7 2.4 18.2 6.9 5.6 5.6 6.1 8 6.2 29.6.1 17.5-.1 20.6-2 26.4-2.7 8.7-6.7 13.6-17.5 21.7-10.9 8.3-14.3 12.7-15.7 21-.6 3.4-.9 6.9-.5 7.7.4 1.3 3.4 1.5 18.1 1.5h17.5v17h-51.8z"/></g></svg>