<svg width="235" height="75" xmlns="http://www.w3.org/2000/svg">
 <g>
  <title>Layer 1</title>
  <g stroke="null" id="svg_2">
   <g stroke="null" clip-path="url(#svg_1)" id="svg_3">
    <path stroke="null" fill="#565656" d="m117.48659,58.22452l0,7.24107l-1.07812,0l0,-7.24107l-2.95105,0l0,-0.96362l6.98023,0l0,0.96362l-2.95105,0l-0.00001,0z" id="svg_4"/>
    <path stroke="null" fill="#565656" d="m130.0856,57.26089l0,8.2047l-1.07871,0l0,-3.71242l-4.76708,0l0,3.71242l-1.07812,0l0,-8.2047l1.07812,0l0,3.5144l4.76708,0l0,-3.5144l1.07871,0z" id="svg_5"/>
    <path stroke="null" fill="#565656" d="m139.1511,57.26078l0,0.94943l-4.76708,0l0,2.57911l4.39813,0l0,0.94919l-4.39813,0l0,2.76335l4.85214,0l0,0.94966l-5.93026,0l0,-8.20493l5.84521,0l0,0.0142l-0.00001,-0.00001z" id="svg_6"/>
    <path stroke="null" fill="#565656" d="m146.07501,61.35664c0,-2.48003 1.83011,-4.29395 4.31308,-4.29395c2.12809,0 3.58924,1.23292 4.02917,2.94759l-1.0922,0c-0.35488,-1.162 -1.40484,-1.95558 -2.90882,-1.95558c-1.88701,0 -3.24903,1.37458 -3.24903,3.30194c0,1.92689 1.3761,3.30182 3.24903,3.30182c1.54679,0 2.69589,-0.90684 2.99387,-2.06884l1.0922,0c-0.35488,1.71455 -1.92924,3.06074 -4.10015,3.06074c-2.48297,0 -4.31308,-1.81369 -4.31308,-4.29372l-0.01408,0l0.00001,0z" id="svg_7"/>
    <path stroke="null" fill="#565656" d="m164.24941,57.26089l0,8.2047l-1.07812,0l0,-3.71242l-4.76708,0l0,3.71242l-1.07812,0l0,-8.2047l1.07812,0l0,3.5144l4.76708,0l0,-3.5144l1.07812,0z" id="svg_8"/>
    <path stroke="null" fill="#565656" d="m172.71953,63.43957l-3.9582,0l-0.82296,2.02603l-1.13502,0l3.3904,-8.2047l1.13502,0l3.3769,8.2047l-1.17725,0l-0.82296,-2.02603l0.01408,0l-0.00001,0zm-0.38303,-0.94966l-1.58903,-3.96776l-1.60311,3.96776l3.19213,0l0.00001,0z" id="svg_9"/>
    <path stroke="null" fill="#565656" d="m183.11889,57.26078l0,0.94943l-4.76708,0l0,2.57911l4.39813,0l0,0.94919l-4.39813,0l0,2.76335l4.85214,0l0,0.94966l-5.93026,0l0,-8.20493l5.84521,0l0,0.0142l-0.00001,-0.00001z" id="svg_10"/>
    <path stroke="null" fill="#565656" d="m196.59718,57.26089l-2.51112,8.2047l-1.0922,0l-1.98614,-6.54669l-1.98672,6.54669l-1.0922,0l-2.49704,-8.2047l1.12094,0l1.94332,6.5752l1.9439,-6.5752l1.1491,0l1.9439,6.60394l1.9439,-6.60394l1.0922,0l0.02816,0z" id="svg_11"/>
    <path stroke="null" fill="#565656" d="m198.59798,61.35664c0,-2.48003 1.84419,-4.29395 4.32715,-4.29395c2.48297,0 4.34123,1.81392 4.34123,4.29395c0,2.48003 -1.83011,4.29372 -4.32715,4.29372c-2.49704,0 -4.34123,-1.81369 -4.34123,-4.29372zm7.60434,0c0,-1.94156 -1.39018,-3.31613 -3.26311,-3.31613c-1.87293,0 -3.24903,1.37458 -3.24903,3.31613c0,1.94156 1.39077,3.3159 3.26311,3.3159c1.87293,0 3.24903,-1.38901 3.24903,-3.3159z" id="svg_12"/>
    <path stroke="null" fill="#565656" d="m209.79215,61.35664c0,-2.48003 1.84419,-4.29395 4.32715,-4.29395c2.48297,0 4.34123,1.81392 4.34123,4.29395c0,2.48003 -1.83011,4.29372 -4.32715,4.29372c-2.49704,0 -4.34123,-1.81369 -4.34123,-4.29372zm7.60434,0c0,-1.94156 -1.39018,-3.31613 -3.26311,-3.31613c-1.87293,0 -3.24903,1.37458 -3.24903,3.31613c0,1.94156 1.39077,3.3159 3.26311,3.3159c1.87293,0 3.24903,-1.38901 3.24903,-3.3159z" id="svg_13"/>
    <path stroke="null" fill="#565656" d="m222.29145,57.26089l3.17806,5.5833l3.17806,-5.5833l0.95084,0l0,8.2047l-1.07871,0l0,-6.06488l-2.65307,4.67646l-0.78014,0l-2.65307,-4.67646l0,6.06488l-1.07812,0l0,-8.2047l0.95025,0l-0.01408,0l-0.00002,0z" id="svg_14"/>
    <path stroke="null" fill="#565656" d="m187.38973,8.57001l-0.0569,0c-0.75199,0 -1.36202,0.60933 -1.36202,1.36038l0,15.19126c0.01408,0.75105 -0.59596,1.36038 -1.34795,1.36038l-2.82318,0c-0.75199,0 -1.36202,-0.60933 -1.36202,-1.36038l0,-15.20539c0,-0.75105 -0.59596,-1.36044 -1.34795,-1.36044l-0.02816,0c-0.75199,0 -1.36202,0.60939 -1.36202,1.36044l0,36.12167c0,0.75105 0.61004,1.36038 1.36202,1.36038l0.04223,0c0.75199,0 1.36202,-0.60933 1.36202,-1.36038l0,-15.47463c0,-0.75111 0.59596,-1.36044 1.34795,-1.36044l2.82318,0c0.75199,0 1.36202,0.60933 1.36202,1.36044l0,15.47463c0,0.75105 0.61004,1.36038 1.36202,1.36038l0.04282,0c0.75199,0 1.36202,-0.60933 1.36202,-1.36038l0,-36.12167c0,-0.75105 -0.61004,-1.36044 -1.36202,-1.36044l-0.01408,0.0142l0.00002,-0.00001z" id="svg_15"/>
    <path stroke="null" fill="#565656" d="m202.85416,22.32997l20.20335,0c0,0 6.92391,-0.04253 6.95207,-6.88708c-0.02816,-6.84455 -6.95207,-6.88708 -6.95207,-6.88708l-20.20335,0c0,0 -6.92333,0.04253 -6.95207,6.88708c0.01408,6.84455 6.95207,6.88708 6.95207,6.88708zm-4.19928,-6.90121c0,-4.0954 3.77343,-4.0954 3.77343,-4.0954l21.05506,0c0,0 3.77401,0 3.77401,4.0954l0,0.02833c0,4.0954 -3.77401,4.0954 -3.77401,4.0954l-21.05506,0c0,0 -3.77343,0 -3.77343,-4.0954l0,-0.02833z" id="svg_16"/>
    <path stroke="null" fill="#505050" d="m227.25738,15.42858l-0.01466,0.01437l0.01466,0l0,-0.01437z" id="svg_17"/>
    <path stroke="null" fill="#565656" d="m215.86436,29.28767l12.7832,0c0.75199,0 1.36202,-0.60933 1.36202,-1.36038l0,-0.08505c0,-0.75105 -0.61004,-1.36038 -1.36202,-1.36038l-31.39752,0c-0.75199,0 -1.36202,0.60933 -1.36202,1.36038l0,0.04253c0,0.75105 0.61004,1.34624 1.34795,1.36038l13.16623,0.04253c0.75199,0 1.34795,0.60939 1.34795,1.36044l0,1.38871c0,0.75105 -0.61004,1.36044 -1.36202,1.36044l-13.15215,0c-0.75199,0 -1.36202,0.60933 -1.36202,1.36038l0,11.29424c0,0.75105 0.61004,1.36038 1.36202,1.36038l31.39752,0c0.75199,0 1.36202,-0.60933 1.36202,-1.36038l0,-11.29424c0,-0.75105 -0.61004,-1.36038 -1.34795,-1.36038l-12.7832,0c-0.75199,0 -1.36202,-0.60939 -1.36202,-1.36044l0,-1.38871c0,-0.75105 0.61004,-1.36044 1.36202,-1.36044l-0.00001,-0.00001zm10.03099,6.84455c0.75199,0 1.36202,0.60939 1.36202,1.36044l0,5.79587c0,0.75105 -0.61004,1.36044 -1.36202,1.36044l-25.89253,0c-0.75199,0 -1.36261,-0.60939 -1.36261,-1.36044l0,-5.79587c0,-0.75105 0.61062,-1.36044 1.36261,-1.36044l25.89253,0z" id="svg_18"/>
    <path stroke="null" fill="#565656" d="m165.01547,20.21819c0,-0.75105 0.61004,-1.36038 1.36202,-1.36038l5.15012,0c0.75199,0 1.36202,-0.60939 1.36202,-1.36044l0,-0.45348c0,-0.75105 -0.61004,-1.36038 -1.36202,-1.36038l-15.5354,0c-0.75199,0 -1.36202,0.60933 -1.36202,1.36038l0,0.45348c0,0.75105 0.61004,1.36044 1.36202,1.36044l4.92311,0c0.75199,0 1.36202,0.60933 1.36202,1.36038l0,20.66117c0,0 0,3.31602 -6.32796,3.71283c-0.70917,0.04247 -1.27697,0.63766 -1.27697,1.34619c0,0.80777 0.69568,1.4313 1.4899,1.34624c2.866,-0.28343 8.85315,-1.45957 8.85315,-6.4194l0,-20.66117l0,0.01414l0.00001,0z" id="svg_19"/>
    <path stroke="null" fill="#565656" d="m166.27836,44.60621c-0.70975,0.04247 -1.27697,0.63766 -1.27697,1.34624c0,0.80771 0.69509,1.43124 1.4899,1.34619c2.866,-0.28337 8.85315,-1.45957 8.85315,-6.4194l-2.73871,0c0,0 0,3.31602 -6.32737,3.71278l0,0.0142l0,-0.00001z" id="svg_20"/>
    <path stroke="null" fill="#565656" d="m135.33485,44.28073l-17.42241,0c-0.75199,0 -1.36202,-0.60933 -1.36202,-1.36038l0,-29.77312c0,-0.75105 0.61004,-1.36038 1.36202,-1.36038l17.42241,0c0.75199,0 1.36202,-0.60933 1.36202,-1.36044l0,-0.45342c0,-0.75111 -0.61004,-1.36044 -1.36202,-1.36044l-20.60046,0c-0.75199,0 -1.36202,0.60933 -1.36202,1.36044l0,1.81386l0,32.49389l0,1.81386c0,0.75111 0.61004,1.36044 1.36202,1.36044l20.60046,0c0.75199,0 1.36202,-0.60933 1.36202,-1.36044l0,-0.45342c0,-0.75105 -0.61004,-1.36044 -1.36202,-1.36044l0,-0.00001z" id="svg_21"/>
    <path stroke="null" fill="#565656" d="m146.10317,8.57001l-0.45401,0c-0.75199,0 -1.36202,0.60933 -1.36202,1.36038l0,16.05569c0,0 0,3.31596 -6.32737,3.71278c-0.70975,0.04247 -1.27697,0.63766 -1.27697,1.34624c0,0.80771 0.69509,1.43124 1.48931,1.34619c1.58903,-0.15585 4.14297,-0.59514 6.11503,-1.79967l0,15.51716c0,0.75105 0.61004,1.36038 1.36202,1.36038l0.45401,0c0.75199,0 1.36202,-0.60933 1.36202,-1.36038l0,-36.19253c0,-0.75105 -0.61004,-1.36044 -1.36202,-1.36044l0,0.0142z" id="svg_22"/>
    <path stroke="null" fill="#019ACD" d="m16.18599,35.72115c-7.54786,-1.9981 -6.85265,-15.37544 -3.34828,-24.2039c0.5959,-1.51629 2.15654,-2.82001 3.41925,-2.04063c33.48308,20.81708 71.06626,15.03535 71.06626,15.03535c1.40484,0.29757 2.48297,1.65801 2.5821,3.31602c0.15603,2.36653 0.02874,4.56301 -0.36837,6.61778c0,0 -34.16439,11.66267 -73.35096,1.27539l0,-0.00001z" id="svg_23"/>
    <path stroke="null" fill="#56852F" d="m7.44639,34.68702c-1.6316,-0.60939 -3.22062,1.33205 -3.66044,3.2593c-5.91629,26.41476 22.72877,34.13758 46.98981,34.13758c24.26109,0 52.90641,-7.72283 46.98964,-34.13758c-0.43934,-1.94144 -1.95798,-3.2593 -3.66022,-3.2593c0,0 -43.32942,16.21148 -86.65879,0z" id="svg_24"/>
    <path stroke="null" fill="#E18C26" d="m77.91693,4.74827c-0.45401,-1.2187 -1.57495,-1.91307 -2.69589,-1.71468c0,0 -12.98146,7.60978 -30.91483,10.48646c-1.27691,0.21257 -2.58216,0.39682 -3.91585,0.53853c-0.72354,0.08499 -1.44714,0.15585 -2.18487,0.22671c-1.44719,0.12752 -2.92272,0.22677 -4.41238,0.28343c-1.53231,0.05666 -3.07875,0.07086 -4.63944,0.02833c0,0 2.34102,1.13367 6.498,2.60744c1.63161,0.581 3.54695,1.20453 5.71768,1.84225c0.79451,0.24091 1.61742,0.46762 2.48285,0.69439c1.46133,0.39676 3.02197,0.77938 4.65358,1.162c7.34924,1.67215 16.40095,3.0042 26.47418,2.94753c3.94412,-5.45578 5.56189,-12.03109 2.93697,-19.08822l0,-0.01417z" id="svg_25"/>
    <path stroke="null" fill="#565656" d="m171.51353,10.01539l-15.52132,0c-0.75257,0 -1.36202,0.6091 -1.36202,1.36044l0,0.45342c0,0.75134 0.60945,1.36044 1.36202,1.36044l15.52132,0c0.75199,0 1.36202,-0.6091 1.36202,-1.36044l0,-0.45342c0,-0.75134 -0.61004,-1.36044 -1.36202,-1.36044z" id="svg_26"/>
   </g>
   <defs stroke="null" transform="translate(0 2) translate(1 0) translate(-2.38419e-7 0) translate(2.38419e-7 0) translate(0 -1) translate(0 1) translate(1 0) translate(0 1) translate(0 -3.57628e-7) translate(1 0) translate(1.19209e-7 0) translate(0 -2) translate(0 -0.00000166893) translate(-2 0) translate(2.38419e-7 0) translate(-33 -93) translate(-2 -130) translate(0 -1) translate(0 -1) translate(0 -1) translate(0 -1) translate(0 -1) translate(0 -1) translate(0 -1) translate(0 -1) translate(0 -1) translate(0 -1) translate(0 -1) translate(0 -1) translate(0 -1) translate(0 -1) translate(0 -1) translate(0 -1) translate(0 -1) translate(0 -1) translate(0 -1) translate(0 -1) translate(0 -1) translate(0 -1) translate(0 -1) translate(0 -0.11232) translate(-229 -4) translate(-1 0) translate(-1 0) translate(-1 0) translate(-1 0) translate(-1 0) translate(-1 0) translate(-1 0) translate(-1 0) translate(-1 0) translate(-1 0) translate(-1 0) translate(-1 0) translate(-1 0) translate(-1 0) translate(-1 0) translate(-1 0) translate(-1 0) translate(-1 0) translate(-1 0) translate(-1 0) translate(-1 0) translate(-1 0) translate(-1 0) translate(-1 0) translate(-1 0) translate(-0.495209 0) translate(87 16) translate(-2 -5) translate(206.505 0) translate(0 239.64) translate(204.495 236.112) scale(0.586574 0.586574) translate(-204.495 -236.112)">
    <clipPath stroke="null" id="svg_1">
     <rect stroke="null" x="3.00958" y="1.52734" fill="white" height="119.248" width="387" id="svg_27"/>
    </clipPath>
   </defs>
  </g>
 </g>
</svg>